<svg width="55" height="45" viewBox="0 0 55 45" fill="none" xmlns="http://www.w3.org/2000/svg">
<path d="M30.6523 42.5225C30.4169 42.5225 30.2318 42.6059 30.0969 42.7728C29.9621 42.9396 29.8947 43.1699 29.8947 43.4636C29.8947 43.771 29.9592 44.0035 30.0884 44.1612C30.2187 44.3189 30.4066 44.3978 30.6523 44.3978C30.7586 44.3978 30.8615 44.3875 30.9609 44.3669C31.0603 44.3452 31.1637 44.3178 31.2711 44.2847V44.6361C31.0746 44.7103 30.8517 44.7475 30.6026 44.7475C30.2358 44.7475 29.9541 44.6366 29.7575 44.4149C29.561 44.1921 29.4627 43.8738 29.4627 43.4601C29.4627 43.1996 29.5101 42.9716 29.605 42.7762C29.701 42.5808 29.8393 42.4311 30.0198 42.3271C30.2004 42.2231 30.4124 42.1711 30.6558 42.1711C30.9117 42.1711 31.1483 42.2248 31.3654 42.3322L31.218 42.6733C31.1334 42.6334 31.0437 42.5985 30.9489 42.5688C30.8552 42.5379 30.7563 42.5225 30.6523 42.5225Z" fill="#03A06C"/>
<path d="M34.0361 43.4567C34.0361 43.8647 33.9338 44.1818 33.7293 44.4081C33.5258 44.6343 33.2373 44.7475 32.8636 44.7475C32.4853 44.7475 32.1945 44.6355 31.9911 44.4115C31.7888 44.1864 31.6877 43.867 31.6877 43.4533C31.6877 43.0396 31.7894 42.7219 31.9928 42.5002C32.1974 42.2785 32.4888 42.1677 32.867 42.1677C33.2396 42.1677 33.5276 42.2802 33.731 42.5054C33.9344 42.7305 34.0361 43.0476 34.0361 43.4567ZM32.1231 43.4567C32.1231 43.7653 32.1854 43.9995 32.3099 44.1595C32.4345 44.3184 32.619 44.3978 32.8636 44.3978C33.107 44.3978 33.2904 44.3189 33.4138 44.1612C33.5384 44.0035 33.6007 43.7687 33.6007 43.4567C33.6007 43.1493 33.539 42.9162 33.4156 42.7573C33.2933 42.5985 33.1104 42.5191 32.867 42.5191C32.6213 42.5191 32.4356 42.5985 32.3099 42.7573C32.1854 42.9162 32.1231 43.1493 32.1231 43.4567Z" fill="#03A06C"/>
<path d="M35.6577 44.7132L34.9309 42.6202H34.9172C34.9366 42.931 34.9463 43.2225 34.9463 43.4944V44.7132H34.5743V42.2071H35.152L35.848 44.2007H35.8582L36.5748 42.2071H37.1541V44.7132H36.7599V43.4739C36.7599 43.3493 36.7627 43.187 36.7685 42.987C36.7753 42.7871 36.781 42.6659 36.7856 42.6236H36.7719L36.0194 44.7132H35.6577Z" fill="#03A06C"/>
<path d="M39.4734 42.9648C39.4734 43.2264 39.3877 43.427 39.2163 43.5664C39.0449 43.7058 38.8009 43.7756 38.4843 43.7756H38.2238V44.7132H37.8141V42.2071H38.5358C38.8489 42.2071 39.0831 42.2711 39.2386 42.3991C39.3951 42.5271 39.4734 42.7156 39.4734 42.9648ZM38.2238 43.431H38.4415C38.6517 43.431 38.806 43.3944 38.9043 43.3213C39.0026 43.2482 39.0517 43.1339 39.0517 42.9785C39.0517 42.8345 39.0077 42.7271 38.9197 42.6562C38.8317 42.5854 38.6946 42.5499 38.5083 42.5499H38.2238V43.431Z" fill="#03A06C"/>
<path d="M39.9739 44.7132V42.2071H40.3836V44.3618H41.4447V44.7132H39.9739Z" fill="#03A06C"/>
<path d="M41.8767 44.7132V42.2071H42.2863V44.7132H41.8767Z" fill="#03A06C"/>
<path d="M44.5045 44.7132L44.2542 44.0172H43.296L43.0509 44.7132H42.6189L43.5565 42.1968H44.0022L44.9399 44.7132H44.5045ZM44.1462 43.6641L43.9114 42.9819C43.8942 42.9362 43.8702 42.8642 43.8394 42.7659C43.8097 42.6676 43.7891 42.5956 43.7777 42.5499C43.7468 42.6905 43.7017 42.8442 43.6422 43.011L43.416 43.6641H44.1462Z" fill="#03A06C"/>
<path d="M47.3585 44.7132H46.8563L45.6238 42.7162H45.6101L45.6187 42.8276C45.6347 43.0402 45.6427 43.2344 45.6427 43.4104V44.7132H45.2707V42.2071H45.7678L46.9968 44.1938H47.0071C47.0048 44.1675 47.0003 44.0721 46.9934 43.9075C46.9866 43.7418 46.9831 43.6127 46.9831 43.5201V42.2071H47.3585V44.7132Z" fill="#03A06C"/>
<path d="M48.8859 44.7132H48.4762V42.5585H47.7391V42.2071H49.6229V42.5585H48.8859V44.7132Z" fill="#03A06C"/>
<path d="M36.4496 36.1138C36.4496 37.3686 36.1034 38.3354 35.4108 39.0142C34.7218 39.693 33.7515 40.0324 32.5002 40.0324H30.0678V32.5141H32.6699C33.8767 32.5141 34.8075 32.8226 35.4623 33.4397C36.1205 34.0568 36.4496 34.9482 36.4496 36.1138ZM34.3412 36.1858C34.3412 35.4967 34.2041 34.9859 33.9298 34.6534C33.659 34.3208 33.2459 34.1545 32.6905 34.1545H32.0991V38.3662H32.5516C33.1687 38.3662 33.6213 38.188 33.9092 37.8314C34.1972 37.4714 34.3412 36.9229 34.3412 36.1858Z" fill="#03A06C"/>
<path d="M42.7183 37.7491C42.7183 38.2154 42.6 38.6302 42.3635 38.9936C42.1269 39.3536 41.7858 39.6347 41.3401 39.837C40.8944 40.0358 40.3716 40.1352 39.7717 40.1352C39.2711 40.1352 38.8512 40.101 38.5118 40.0324C38.1724 39.9604 37.8192 39.837 37.4524 39.6621V37.852C37.8398 38.0508 38.2426 38.2068 38.6609 38.32C39.0791 38.4297 39.4631 38.4845 39.8128 38.4845C40.1145 38.4845 40.3356 38.4331 40.4762 38.3302C40.6167 38.224 40.687 38.0885 40.687 37.924C40.687 37.8211 40.6579 37.732 40.5996 37.6566C40.5448 37.5777 40.4539 37.4989 40.3271 37.42C40.2036 37.3412 39.8711 37.18 39.3294 36.9366C38.8392 36.7138 38.4706 36.4978 38.2238 36.2887C37.9804 36.0795 37.7987 35.8396 37.6787 35.5687C37.5621 35.2979 37.5038 34.9773 37.5038 34.6071C37.5038 33.9146 37.7558 33.3746 38.2598 32.9872C38.7637 32.5998 39.4563 32.4061 40.3373 32.4061C41.1156 32.4061 41.9092 32.5861 42.7183 32.9461L42.0961 34.5145C41.3933 34.1923 40.7864 34.0311 40.2756 34.0311C40.0116 34.0311 39.8197 34.0774 39.6997 34.17C39.5797 34.2625 39.5197 34.3774 39.5197 34.5145C39.5197 34.6619 39.5951 34.7939 39.746 34.9105C39.9002 35.0271 40.3151 35.2396 40.9904 35.5482C41.6384 35.8396 42.0875 36.1533 42.3378 36.4892C42.5915 36.8218 42.7183 37.2417 42.7183 37.7491Z" fill="#03A06C"/>
<path d="M48.7967 37.7491C48.7967 38.2154 48.6784 38.6302 48.4419 38.9936C48.2053 39.3536 47.8642 39.6347 47.4185 39.837C46.9729 40.0358 46.45 40.1352 45.8501 40.1352C45.3495 40.1352 44.9296 40.101 44.5902 40.0324C44.2508 39.9604 43.8976 39.837 43.5308 39.6621V37.852C43.9182 38.0508 44.321 38.2068 44.7393 38.32C45.1576 38.4297 45.5415 38.4845 45.8912 38.4845C46.1929 38.4845 46.414 38.4331 46.5546 38.3302C46.6952 38.224 46.7654 38.0885 46.7654 37.924C46.7654 37.8211 46.7363 37.732 46.678 37.6566C46.6232 37.5777 46.5323 37.4989 46.4055 37.42C46.282 37.3412 45.9495 37.18 45.4078 36.9366C44.9176 36.7138 44.549 36.4978 44.3022 36.2887C44.0588 36.0795 43.8771 35.8396 43.7571 35.5687C43.6405 35.2979 43.5822 34.9773 43.5822 34.6071C43.5822 33.9146 43.8342 33.3746 44.3382 32.9872C44.8422 32.5998 45.5347 32.4061 46.4158 32.4061C47.194 32.4061 47.9876 32.5861 48.7967 32.9461L48.1745 34.5145C47.4717 34.1923 46.8649 34.0311 46.354 34.0311C46.0901 34.0311 45.8981 34.0774 45.7781 34.17C45.6581 34.2625 45.5981 34.3774 45.5981 34.5145C45.5981 34.6619 45.6735 34.7939 45.8244 34.9105C45.9786 35.0271 46.3935 35.2396 47.0688 35.5482C47.7168 35.8396 48.1659 36.1533 48.4162 36.4892C48.6699 36.8218 48.7967 37.2417 48.7967 37.7491Z" fill="#03A06C"/>
<path fill-rule="evenodd" clip-rule="evenodd" d="M49.9052 20.9756L47.0789 21.8744C47.6394 20.862 48.3097 19.7663 48.9901 18.9186L49.9052 20.9756ZM40.5738 0L46.1162 12.4585C45.4877 13.3317 43.6042 15.9584 41.8302 18.5365V10.2708H36.7981V21.3555C36.1025 20.8802 35.3716 20.5463 34.6678 20.4268V19.8751C34.6678 19.8328 34.6399 19.8177 34.6036 19.84C34.6036 19.84 34.0604 20.2806 31.6715 20.5157C30.9943 20.5925 30.673 20.5565 30.4288 20.5157C27.0418 19.941 26.8805 17.437 26.8805 17.437C26.8759 17.3956 26.8721 17.3275 26.8721 17.2856V16.3264C26.8721 16.2842 26.876 16.216 26.8818 16.1745C26.8818 16.1745 27.1108 13.492 30.429 13.209H31.6716C33.1373 13.4087 34.3145 14.14 34.3145 14.14C34.3505 14.1613 34.3797 14.1439 34.3797 14.102V10.7434C34.3797 10.7011 34.3509 10.6498 34.3133 10.6296C34.3133 10.6296 33.6533 10.1956 31.6391 10.0747C31.5315 10.0146 29.7786 10.0058 29.2922 10.0747C21.974 10.6668 21.7026 16.0089 21.7026 16.2529V17.5507C21.7026 17.71 21.7026 23.1717 29.2919 23.656C29.894 23.7022 30.9654 23.6734 31.4284 23.6609C31.5355 23.658 31.6101 23.656 31.6388 23.656L31.6723 23.6559C31.8341 24.5492 32.2723 25.5065 32.8794 26.39L11.2406 33.2712L0 2.32446L40.5738 0ZM42.3894 6.07499C42.3894 7.69126 41.0126 9.00151 39.3142 9.00151C37.6158 9.00151 36.239 7.69126 36.239 6.07499C36.239 4.45872 37.6158 3.14847 39.3142 3.14847C41.0126 3.14847 42.3894 4.45872 42.3894 6.07499ZM7.82069 23.5521C7.77894 23.5521 7.74534 23.5179 7.74534 23.4757L7.74566 10.3399C7.74566 10.2982 7.77981 10.2635 7.82194 10.2635C7.82194 10.2635 14.1405 10.2651 14.173 10.2635C15.7892 10.1869 20.6984 10.6458 20.6984 14.8278C20.6984 20.1276 12.8738 19.5564 12.8738 19.5564C12.8316 19.5541 12.7981 19.5861 12.7981 19.6282V23.4757C12.7981 23.5175 12.7644 23.5521 12.7228 23.5521H7.82069ZM12.7108 13.1514V16.6179L14.0502 16.6181C14.0502 16.6181 15.5657 16.5492 15.7904 15.1401C15.8147 15.1078 15.8223 14.5216 15.7906 14.4281C15.6548 13.2307 13.9104 13.1514 13.9104 13.1514H12.7108Z" fill="#03A06C"/>
<path fill-rule="evenodd" clip-rule="evenodd" d="M39.4533 29.9293C39.8622 29.9293 40.1755 29.9293 40.6925 29.6978C42.4792 28.7498 48.4931 13.9307 54.8363 9.37257C54.875 9.34335 54.9268 9.30079 54.9568 9.25751C54.9984 9.19742 55.0001 9.1361 55.0001 9.1361C55.0001 9.1361 55.0001 8.8304 54.0596 8.8304C48.4126 8.6751 42.5403 20.6195 39.4533 25.3453C39.4147 25.3973 39.2024 25.3453 39.2024 25.3453C39.2024 25.3453 37.1338 22.8831 35.3366 21.9381C35.2992 21.9184 35.0947 21.8555 34.8826 21.8714C34.7405 21.8714 33.9045 22.0411 33.5151 22.4558C33.0547 22.9459 33.0642 23.2209 33.0683 23.8173C33.0686 23.8659 33.0995 24.0623 33.1565 24.1629C33.5959 24.938 35.6029 27.7224 37.2473 29.2584C37.5018 29.4411 37.889 29.9293 39.4533 29.9293Z" fill="#03A06C"/>
</svg>
