<svg width="44" height="46" viewBox="0 0 44 46" fill="none" xmlns="http://www.w3.org/2000/svg">
<path d="M23.6699 23.0957H21.118V23.3177H23.6699V23.0957Z" fill="#03A06C"/>
<path d="M23.4114 23.4763H21.344V23.8888H23.4114V23.4763Z" fill="#03A06C"/>
<path d="M23.8645 22.5246H20.8927V22.9371H23.8645V22.5246Z" fill="#03A06C"/>
<path d="M23.6699 22.1439H21.118V22.366H23.6699V22.1439Z" fill="#03A06C"/>
<path d="M21.344 21.4777H21.9254C21.9254 21.0018 21.8285 20.3673 21.5378 20.1135L21.344 19.9866C21.1825 19.9866 21.0533 20.0818 20.9563 20.2087C20.601 20.6211 21.0533 21.2239 21.344 21.4777Z" fill="#03A06C"/>
<path d="M34.6199 22.9687C33.1986 20.8114 31.325 22.3342 29.1285 20.9701C28.9347 21.0652 28.7085 21.097 28.4824 21.097C29.0962 21.8901 29.4838 22.8101 29.6776 23.7936C30.4206 24.9039 31.9388 25.0626 33.3601 24.777C32.9402 24.0791 32.2295 23.6349 31.4219 23.508C30.5175 23.2542 29.7745 22.8736 29.5484 21.9853C30.2268 23.6032 32.5848 23.3811 34.6199 22.9687Z" fill="#03A06C"/>
<path d="M22.7973 24.4281C22.7327 24.4281 22.7004 24.4915 22.7004 24.5867C22.7004 24.6819 22.7327 24.7453 22.7973 24.7453C22.8943 24.7453 22.8943 24.6501 22.8943 24.5867C22.8943 24.5232 22.8943 24.4281 22.7973 24.4281Z" fill="#03A06C"/>
<path d="M22.0544 21.4777H22.6681C22.7004 20.9384 22.765 20.3039 23.1204 20.0184L22.6681 20.177L22.5712 20.0184C22.5066 20.0501 22.442 20.0818 22.3774 20.0818C22.3128 20.0818 22.2482 20.0501 22.1836 20.0184L22.0867 20.1453L21.6345 19.9866C21.9575 20.2722 22.0544 20.9384 22.0544 21.4777Z" fill="#03A06C"/>
<path d="M23.8313 39.1167L23.6374 38.7995L23.379 38.8946L23.8313 39.1167Z" fill="#03A06C"/>
<path d="M22.4101 35.3097L21.118 35.849L22.604 38.9898L23.9284 38.4188L22.4101 35.3097Z" fill="#03A06C"/>
<path d="M30.0975 19.0031C31.5511 18.9397 31.7126 20.4625 30.8728 21.319C31.1635 21.3508 31.4865 21.3825 31.7773 21.3825C32.4879 21.4142 33.1663 21.4459 33.78 21.8266C34.9106 21.5728 35.912 21.097 36.4934 20.1769C35.2659 20.5259 33.2955 20.2087 31.8419 20.8749C33.5216 19.7328 36.3965 20.5894 37.5917 17.9245C35.589 18.7493 33.3601 18.3052 31.8742 19.828C32.6171 18.7811 33.3278 18.5907 34.7168 18.2417C36.235 18.0514 37.4948 17.0045 37.8824 15.5451C35.7828 17.1631 33.1017 16.4334 31.3573 18.8762C32.0034 17.2583 33.6185 16.7824 35.2013 16.2431C36.4611 15.7672 37.301 14.9741 37.3979 13.832C34.523 15.8307 31.745 15.3548 30.7759 18.4004C31.0666 16.0527 33.1986 15.5451 35.4274 14.5617C36.0412 14.2127 36.6872 13.483 36.5257 12.1506C34.6845 14.3079 29.936 14.0223 30.0975 19.0031Z" fill="#03A06C"/>
<path d="M21.7642 24.6185H21.8611L21.7965 24.4916L21.7642 24.6185Z" fill="#03A06C"/>
<path d="M11.1687 40.7346L10.9102 40.0367C10.8456 39.8146 10.6195 39.7195 10.3934 39.7829L10.1996 39.8464C9.97346 39.9098 9.87655 40.1319 9.94116 40.354L10.3611 41.5595L10.9102 41.0836L10.4903 41.8133L10.5226 41.9085L10.7164 42.4795C10.7164 42.4795 11.201 41.845 11.104 41.3057C11.0394 41.0519 11.2656 40.9567 11.1687 40.7346Z" fill="#03A06C"/>
<path d="M16.886 35.405L11.1039 32.7084L10.9424 33.0891L17.3383 36.1029L16.886 35.405Z" fill="#03A06C"/>
<path d="M22.3778 19.5425C22.2809 19.5425 22.184 19.6377 22.184 19.7329C22.184 19.828 22.2809 19.9232 22.3778 19.9232C22.4747 19.9232 22.5717 19.828 22.5717 19.7329C22.5717 19.6377 22.4747 19.5425 22.3778 19.5425Z" fill="#03A06C"/>
<path d="M19.0181 7.04295C18.8888 6.88433 18.7273 6.78915 18.5335 6.78915L18.3397 6.9795C17.9521 7.29675 17.8875 7.93125 17.8552 8.53402C18.049 8.53402 18.2428 8.56574 18.4366 8.59747L18.5335 8.62919C18.8565 8.31195 19.5349 7.67745 19.0181 7.04295Z" fill="#03A06C"/>
<path d="M16.1761 8.75606V9.07331C17.016 9.00986 17.6943 9.16848 18.4373 9.16848V8.72434C17.6943 8.66089 16.919 8.66089 16.1761 8.75606Z" fill="#03A06C"/>
<path d="M14.3985 37.0863C14.6893 36.5152 14.9154 35.9124 15.0123 35.2779L12.7188 34.231C12.7188 36.2931 11.9758 37.9745 10.6191 39.5608C10.7807 39.5925 10.9422 39.656 11.0391 39.7829L12.6219 39.2118C12.8803 39.0215 13.1064 38.8311 13.3326 38.609L12.7834 37.9428L12.9449 37.8159L13.4941 38.4504C13.6233 38.2918 13.7525 38.1649 13.8494 38.0063L13.2356 37.2766L13.3972 37.1497L13.9786 37.8476C14.0755 37.689 14.2047 37.4987 14.3016 37.34L13.5587 36.4835L13.7202 36.3566L14.3985 37.0863Z" fill="#03A06C"/>
<path d="M23.3792 21.6363H21.3764V21.9853H23.3792V21.6363Z" fill="#03A06C"/>
<path d="M22.2164 19.3839H22.5395L22.4749 19.1935L22.701 19.2252V18.9397L22.4749 19.0032L22.5395 18.7811H22.2164L22.281 19.0032L22.0549 18.9397V19.2252L22.281 19.1935L22.2164 19.3839Z" fill="#03A06C"/>
<path d="M22.3461 39.0532L21.9585 39.2118C21.9262 39.4022 21.8616 39.5925 21.8293 39.7512C22.0554 39.6877 22.2492 39.6243 22.5076 39.6243C22.7338 39.6243 22.9599 39.656 23.1537 39.7512C23.0891 39.5291 23.0245 39.3387 22.9922 39.1167L22.5076 39.307L22.3461 39.0532Z" fill="#03A06C"/>
<path d="M30.001 30.9952C30.0656 30.5194 30.0333 30.0435 29.9687 29.5676C29.6134 29.0917 29.2903 28.5524 29.0319 28.0131C28.7412 28.5524 28.3859 29.06 27.9659 29.5042C28.3213 30.2021 28.7735 30.8049 29.3226 31.3442L30.001 30.9952Z" fill="#03A06C"/>
<path d="M23.411 21.4777C23.7017 21.2239 24.1216 20.6529 23.7986 20.2087C23.6694 20.0818 23.5402 19.9866 23.3787 19.9866L23.2172 20.1135C22.9264 20.3673 22.8295 20.9701 22.8295 21.4777H23.411Z" fill="#03A06C"/>
<path d="M24.0573 28.933H20.6978V29.282H24.0573V28.933Z" fill="#03A06C"/>
<path d="M20.6655 14.9741L20.5363 14.4665C20.504 14.3078 20.4394 14.1492 20.3748 13.9589C20.2778 14.2761 20.1163 14.5934 19.9225 14.8789L19.5995 15.3865L19.5349 14.7837C19.5349 14.6885 19.5026 14.6251 19.5026 14.5299C19.438 14.7837 19.3088 15.0058 19.1473 15.1961L19.0827 15.2596C19.0504 15.6403 18.9857 16.021 18.9211 16.2431C19.4057 16.1479 20.0194 15.4817 20.2455 14.9423C20.3748 15.2913 20.5363 15.5768 20.7947 15.8624C21.1823 15.3865 21.3761 14.8154 21.3761 14.2127C21.6022 14.5299 21.9899 14.7203 22.3775 14.7203C22.7651 14.7203 23.1528 14.5299 23.3789 14.2127C23.3789 14.8154 23.605 15.3865 23.9603 15.8624C24.2188 15.6086 24.3803 15.2913 24.5095 14.9423C24.7356 15.4499 25.3493 16.1162 25.8339 16.2431C25.8016 16.021 25.7047 15.6403 25.6724 15.2596V15.2279C25.5108 15.0058 25.4139 14.7837 25.317 14.5616C25.317 14.6568 25.2847 14.7203 25.2847 14.8154L25.2201 15.4182L24.8971 14.9106C24.7033 14.6251 24.5418 14.3078 24.4449 13.9906C24.3803 14.1492 24.348 14.3078 24.2834 14.4982L24.1541 15.0058L23.8634 14.5299C23.6696 14.1492 23.605 13.7368 23.6373 13.3244C23.3789 13.5782 23.0559 13.8002 22.7328 13.9589C22.6682 14.2444 22.539 14.4982 22.3775 14.7203C22.216 14.4982 22.0868 14.2127 22.0222 13.9589C21.6992 13.8002 21.4084 13.5782 21.1177 13.3244C21.1823 13.7368 21.0854 14.1492 20.8916 14.5299L20.6655 14.9741Z" fill="#03A06C"/>
<path d="M24.8008 16.7825C24.8008 16.9411 24.7685 17.068 24.7362 17.2266C24.9946 17.3853 25.253 17.5756 25.4792 17.7977C25.5438 17.7025 25.6084 17.5756 25.6407 17.4487C25.3177 17.2266 25.0592 17.0363 24.8008 16.7825Z" fill="#03A06C"/>
<path d="M20.181 16.1162C20.181 16.4334 20.2133 16.7507 20.2779 17.0679C20.6009 16.8776 20.9562 16.7507 21.3439 16.6872C21.6346 16.37 21.7961 15.9576 21.8607 15.5452C21.9253 15.8941 22.0222 16.2431 22.1191 16.5921C22.1514 16.5921 22.636 16.5921 22.6683 16.5921C22.7652 16.2431 22.8621 15.8941 22.9267 15.5452C22.9913 15.9576 23.1528 16.37 23.4435 16.6872C23.7988 16.7824 24.1542 16.9093 24.5095 17.0679C24.5741 16.7507 24.6064 16.4334 24.5741 16.1162C25.0586 16.9093 25.8985 17.4486 26.5446 17.3535C26.3507 17.0997 26.1569 16.8141 26.0277 16.5286L25.8339 16.4969C25.3171 16.3065 24.8648 15.9576 24.5741 15.4817C24.4772 15.7038 24.3157 15.8941 24.1542 16.0527L23.9927 16.2114L23.8311 16.0527C23.5081 15.6721 23.3143 15.1962 23.2497 14.7203C23.0236 15.1327 21.7638 15.1327 21.57 14.7203C21.5054 15.2279 21.3115 15.6721 20.9885 16.0527L20.827 16.2114L20.6655 16.0527C20.504 15.8941 20.3425 15.6721 20.2456 15.4817C19.9548 15.9576 19.5026 16.3065 18.9858 16.4969L18.7273 16.5603C18.5981 16.8459 18.4366 17.1314 18.2105 17.3852C18.8566 17.4804 19.7287 16.941 20.181 16.1162Z" fill="#03A06C"/>
<path d="M22.4104 6.1546C22.3458 6.1546 22.3135 6.1546 22.2489 6.1546V6.18633C22.2166 6.59875 22.1843 7.01117 22.0874 7.42359C22.1843 7.42359 22.3135 7.42359 22.4104 7.42359C22.5073 7.42359 22.6365 7.42359 22.7335 7.42359C22.6365 7.01117 22.5719 6.59875 22.5719 6.18633V6.1546C22.5073 6.18633 22.4427 6.1546 22.4104 6.1546Z" fill="#03A06C"/>
<path d="M19.7933 13.6099L19.4702 13.1023C19.2441 12.7851 18.9534 12.4996 18.6304 12.2775C18.8242 12.7534 18.8242 13.261 18.695 13.7368C18.8888 14.181 18.9857 14.6569 18.9534 15.101C19.2764 14.6569 19.4056 14.1175 19.4056 13.5782C19.5994 13.9589 19.6964 14.3713 19.761 14.7838C20.084 14.3396 20.2455 13.8003 20.3101 13.261C20.5039 13.6099 20.6654 14.0224 20.7623 14.4348C21.0208 14.0224 20.9562 13.3561 20.8592 12.7216C21.2469 13.1975 21.7314 13.5782 22.2806 13.832C22.0221 13.2292 21.6668 12.6899 21.1823 12.2458C20.6977 12.3092 20.2132 12.2458 19.761 12.0554C19.8902 12.3727 19.9225 12.6899 19.8902 13.0389L19.7933 13.6099Z" fill="#03A06C"/>
<path d="M23.637 12.2458C23.1847 12.6899 22.7971 13.261 22.5387 13.832C23.0878 13.5465 23.5724 13.1658 23.96 12.7217C23.8631 13.3244 23.7985 14.0224 24.0569 14.4348C24.1538 14.0224 24.3153 13.6417 24.5091 13.261C24.5415 13.8003 24.7353 14.3396 25.0583 14.7838C25.0906 14.3713 25.2198 13.9589 25.4136 13.5782C25.3813 14.1175 25.5428 14.6569 25.8659 15.101C25.8659 14.6251 25.9305 14.1493 26.1243 13.7369C25.9628 13.261 25.9951 12.7217 26.1889 12.2775C25.8659 12.4996 25.5751 12.7851 25.349 13.1024L25.026 13.61L24.9291 13.0072C24.8968 12.6899 24.9291 12.341 25.0583 12.0237C24.6061 12.2458 24.1215 12.3092 23.637 12.2458Z" fill="#03A06C"/>
<path d="M25.7044 17.8293C25.6721 17.8611 25.6721 17.8928 25.6398 17.9245C25.8659 18.1783 26.092 18.4321 26.2535 18.7494H27.1257V19.7646C27.5779 20.1135 27.9656 20.4942 28.3209 20.9067C28.6439 20.9067 28.9346 20.8432 29.2253 20.6846C27.7071 20.4308 27.9655 18.3052 25.7044 17.8293Z" fill="#03A06C"/>
<path d="M26.8351 17.5438L26.609 17.5756C26.5444 17.5756 26.4798 17.5756 26.4152 17.5756C26.2213 17.5756 26.0275 17.5438 25.8337 17.4487C25.8337 17.4804 25.8014 17.5438 25.7691 17.5756C27.0935 17.8611 27.6103 18.6859 28.0303 19.3522C28.1595 19.5425 28.2887 19.7646 28.4502 19.9232C28.6117 19.9232 28.7732 19.8598 28.9024 19.7963C28.1595 19.606 28.2241 18.2735 26.8351 17.5438Z" fill="#03A06C"/>
<path d="M21.6669 16.6238C21.7315 16.6238 21.8284 16.5921 21.893 16.5921C21.8607 16.5286 21.8284 16.4334 21.8284 16.37C21.7638 16.4652 21.7315 16.5603 21.6669 16.6238Z" fill="#03A06C"/>
<path d="M20.0841 17.1949C20.0518 17.068 20.0195 16.9094 20.0195 16.7507C19.7934 17.0045 19.5027 17.2266 19.212 17.3852C19.2443 17.5121 19.3089 17.639 19.3735 17.7342C19.5673 17.5439 19.7934 17.3535 20.0841 17.1949Z" fill="#03A06C"/>
<path d="M22.9271 16.6238C22.9917 16.6238 23.0886 16.6238 23.1532 16.6555C23.0886 16.5603 23.024 16.4969 22.9917 16.4017C22.9594 16.4652 22.9594 16.5286 22.9271 16.6238Z" fill="#03A06C"/>
<path d="M23.4114 28.3621V25.3165H21.344V28.3621H23.4114ZM22.9268 25.602H23.0883V27.9497H22.9268V25.602ZM22.3131 25.602H22.4746V27.9497H22.3131V25.602ZM21.6993 25.602H21.8608V27.9497H21.6993V25.602Z" fill="#03A06C"/>
<path d="M37.9148 16.1479C39.8529 15.0693 41.6942 13.2927 41.6942 10.5327C41.2419 11.1037 40.7251 11.6747 40.176 12.1823C39.4653 13.2293 38.5608 14.0858 37.4625 14.7203C37.1395 15.4817 36.3966 16.0528 35.3306 16.4652L35.2983 16.4969C36.2027 16.3066 37.0426 15.9259 37.7856 15.4183L38.3024 15.0059L38.1086 15.6403C38.0763 15.799 38.0117 15.9893 37.9148 16.1479Z" fill="#03A06C"/>
<path d="M23.9931 24.0474H20.7951V25.1261H23.9931V24.0474ZM21.3765 24.8088C21.3119 24.8088 21.2473 24.8088 21.215 24.7771V24.6502H21.2473L21.2796 24.7454C21.3119 24.7454 21.3119 24.7454 21.3442 24.7454C21.3765 24.7454 21.4412 24.7136 21.4412 24.6819C21.4412 24.6502 21.4089 24.6185 21.3442 24.6185H21.2796V24.5867H21.3442C21.3765 24.5867 21.4089 24.5867 21.4089 24.5233C21.4089 24.4598 21.4089 24.4598 21.3442 24.4598H21.3119C21.2796 24.4598 21.2796 24.4598 21.2473 24.4598L21.2796 24.4916H21.2473V24.3647C21.3119 24.3329 21.3442 24.3329 21.4089 24.3329C21.5058 24.3329 21.5704 24.3647 21.5704 24.4598C21.5058 24.4916 21.5058 24.555 21.5058 24.6185C21.5058 24.6502 21.5381 24.6819 21.5704 24.6819C21.5381 24.7771 21.4735 24.8405 21.3765 24.8088ZM22.0872 24.7771V24.8088H21.8611V24.7771H21.9257L21.8934 24.7136H21.7319L21.6996 24.7454H21.7642V24.7771H21.6027V24.7454L21.6673 24.7136L21.8288 24.3329H21.9257L22.0872 24.7136V24.7771ZM22.604 24.8088H22.4425L22.281 24.6185V24.7454H22.3456V24.7771H22.1195V24.7454H22.1841V24.4281L22.1195 24.3964V24.3647H22.3456V24.3964L22.281 24.4281V24.555L22.4102 24.3964H22.3779V24.3647H22.5717V24.3964L22.5071 24.4281L22.4102 24.555L22.5717 24.7454L22.6363 24.7771V24.8088H22.604ZM22.7979 24.8088C22.6686 24.8088 22.5717 24.7454 22.5717 24.6185V24.5867C22.5394 24.4916 22.6363 24.3647 22.7333 24.3647C22.7656 24.3647 22.7656 24.3647 22.7979 24.3647C22.9271 24.3647 23.024 24.4916 23.024 24.6185C23.024 24.7136 22.9271 24.8088 22.7979 24.8088ZM23.5731 24.3964L23.5085 24.4281V24.7454H23.5731V24.7771H23.347V24.7454H23.4116V24.5867H23.2824V24.7454H23.347V24.7771H23.1209V24.7454H23.1855V24.4281L23.1209 24.3964V24.3647H23.347V24.3964L23.2501 24.4281V24.555H23.3793V24.4281L23.3147 24.3964V24.3647H23.5408L23.5731 24.3964C23.5731 24.3647 23.5731 24.3964 23.5731 24.3964Z" fill="#03A06C"/>
<path d="M23.7986 28.5206H20.9559V28.7744H23.7986V28.5206Z" fill="#03A06C"/>
<path d="M41.5329 10.4058L41.9206 9.92988V10.5327C41.9206 11.1037 41.8237 11.7065 41.6622 12.2775C42.9543 10.723 43.7295 8.85124 43.1158 5.996C42.825 7.04292 41.9852 8.37536 40.9838 9.83471C40.9192 10.4375 40.7577 11.0085 40.4993 11.5478C40.8546 11.1989 41.1776 10.8182 41.5329 10.4058Z" fill="#03A06C"/>
<path d="M35.9775 14.4348C36.4297 14.2127 36.8819 13.9589 37.3019 13.6734L37.6895 13.4196L37.6572 13.8955C37.6572 14.0541 37.6249 14.2127 37.5603 14.4031C39.2723 13.2927 40.6613 11.8334 40.7905 9.35883C39.6277 10.7864 38.6909 11.8968 36.7527 12.8486C36.7204 13.4196 36.462 14.0224 35.9775 14.4348Z" fill="#03A06C"/>
<path d="M37.689 18.2418C40.0794 17.068 42.4052 14.9424 42.5344 12.1823C42.1144 12.6899 41.6299 13.1658 41.1131 13.5465C40.2732 14.8155 39.1103 15.8307 37.7536 16.5286C37.3014 17.29 36.5907 17.8928 35.7509 18.2418C36.3646 18.1466 36.946 17.988 37.5275 17.7976L38.0443 17.6073L37.8182 18.1149C37.7536 18.1149 37.7213 18.1783 37.689 18.2418Z" fill="#03A06C"/>
<path d="M41.1775 13.1976C41.5974 12.8486 42.0174 12.4679 42.3727 12.0238L42.7926 11.5162L42.7603 12.1824C42.728 13.039 42.4696 13.8955 42.0497 14.6569C43.2772 13.1976 44.3431 11.8334 43.7294 8.91473C43.6325 9.10508 43.5033 9.32716 43.3741 9.54923C43.0833 10.5961 42.5665 11.5796 41.8558 12.4045L41.1775 13.1976Z" fill="#03A06C"/>
<path d="M26.8997 19.8597V18.9714H26.1245C25.4138 17.6707 24.0571 16.8459 22.5389 16.8459H22.2805C20.7623 16.8459 19.4056 17.6707 18.6949 18.9714H17.9842V19.8597C15.077 21.9535 14.4633 25.9826 16.5952 28.8378C16.9829 29.3454 17.4674 29.8213 17.9842 30.202V31.0903H18.6949C19.4056 32.391 20.7623 33.2159 22.2805 33.2159H22.5389C24.0571 33.2159 25.4138 32.391 26.1245 31.0903H26.8997V30.202C29.807 28.1082 30.4207 24.0791 28.2887 21.2239C27.9011 20.6846 27.4166 20.2404 26.8997 19.8597ZM27.998 28.6158C27.6427 29.1234 27.1905 29.5358 26.6736 29.9165L26.5444 30.0117V30.7413H25.8984L25.8015 30.9317C25.1554 32.1372 23.8956 32.8986 22.5066 32.8986H22.2482C20.8592 32.8986 19.5994 32.1372 18.9533 30.9317L18.8564 30.7413H18.275V30.0117L18.1458 29.9165C15.4324 27.9178 14.8186 24.1108 16.8537 21.4142C17.209 20.9066 17.6612 20.4942 18.1781 20.1135L18.3073 20.0183V19.2887H18.8887L18.9856 19.0983C19.6317 17.8928 20.8915 17.1314 22.2805 17.1314H22.5389C23.9279 17.1314 25.1877 17.8928 25.8338 19.0983L25.9307 19.2887H26.5767V20.0183L26.7059 20.1135C29.4516 22.1122 30.0331 25.9192 27.998 28.6158Z" fill="#03A06C"/>
<path d="M15.4976 9.77126C16.9189 9.48573 17.3065 9.99333 17.8879 10.2471C18.4371 10.5009 19.6 10.5961 20.2783 9.23193C19.7292 9.45401 19.1477 9.51746 18.5663 9.42228C17.791 9.32711 16.9835 9.26366 16.1759 9.26366C15.8529 9.29538 15.5945 9.48573 15.4976 9.77126Z" fill="#03A06C"/>
<path d="M24.4134 29.4406H20.3755V29.9482H24.4134V29.4406Z" fill="#03A06C"/>
<path d="M22.5712 34.7069C22.7974 34.58 23.0235 34.4848 23.2496 34.3897C23.0235 34.0724 22.8297 33.7552 22.6358 33.4379C22.6035 33.4379 22.5389 33.4379 22.5066 33.4379H22.2482C22.2159 33.4379 22.1513 33.4379 22.119 33.4379C21.9898 33.7235 21.8283 33.9772 21.6345 34.231L22.2482 34.5166C22.2805 34.4214 22.3451 34.231 22.3774 34.1359C22.4743 34.3262 22.5066 34.5166 22.5712 34.7069Z" fill="#03A06C"/>
<path d="M26.9321 10.2471C27.5135 9.99333 27.9011 9.51746 29.3225 9.77126C29.2255 9.48573 28.9671 9.29538 28.6441 9.26366C27.8365 9.26366 27.0613 9.32711 26.2537 9.42228C25.6723 9.51746 25.0908 9.42228 24.5417 9.23193C25.22 10.5961 26.3829 10.4692 26.9321 10.2471Z" fill="#03A06C"/>
<path d="M7.745 30.9L10.0062 31.9469L10.3615 31.2172L8.10032 30.1703L7.745 30.9Z" fill="#03A06C"/>
<path d="M10.8467 30.2654L8.58557 29.2185L8.19794 29.9482L10.4914 30.9951L10.8467 30.2654Z" fill="#03A06C"/>
<path d="M11.1366 29.6944L8.84315 28.6158L8.68164 29.0282L10.9428 30.0751L11.1366 29.6944Z" fill="#03A06C"/>
<path d="M31.4222 26.4585C31.3576 25.8875 31.0992 25.3164 30.6793 24.904C30.2916 24.7771 29.9686 24.5233 29.7425 24.2061C29.8071 24.8088 29.8071 25.4116 29.7102 26.0144C30.1947 26.3633 30.8085 26.522 31.4222 26.4585Z" fill="#03A06C"/>
<path d="M13.0426 25.1261C12.9134 25.1261 12.7842 25.1578 12.6226 25.1578C12.2027 25.1578 11.8151 25.1261 11.3951 25.0309L11.0721 24.9675L11.169 24.8088C10.5553 24.904 9.94153 24.9675 9.32778 24.9675C8.81094 24.9675 8.29411 24.9357 7.77727 24.8406C7.00201 25.0626 6.42056 25.3482 6.22675 25.824C8.71404 26.522 10.8783 26.173 13.0426 25.1261Z" fill="#03A06C"/>
<path d="M7.64859 28.0765L7.22866 27.8861C7.03485 27.7909 6.77643 27.8861 6.67952 28.0765C6.67952 28.1082 6.64722 28.1399 6.64722 28.1716H6.67952C6.77643 28.1716 6.87333 28.2034 6.93794 28.2351L7.45478 28.4889L7.64859 28.0765Z" fill="#03A06C"/>
<path d="M12.17 23.7619C11.6855 23.8253 11.201 23.8253 10.6841 23.857C9.1982 23.8888 7.74459 23.5715 6.38788 22.937C6.00025 23.0322 5.64492 23.1591 5.3219 23.3812C6.45249 24.5867 8.74596 25.0308 11.3625 24.555C11.5563 24.2377 11.847 23.9522 12.17 23.7619Z" fill="#03A06C"/>
<path d="M5.96801 30.0752L6.54946 30.3607L6.90479 29.631L6.32334 29.3455C6.12953 29.2503 5.87111 29.3455 5.7742 29.5359C5.67729 29.7262 5.7419 29.98 5.96801 30.0752Z" fill="#03A06C"/>
<path d="M7.35778 28.6475L6.84094 28.3937C6.64713 28.2985 6.38871 28.3937 6.2918 28.584C6.19489 28.7744 6.2918 29.0282 6.48562 29.1234L7.00246 29.3772L7.35778 28.6475Z" fill="#03A06C"/>
<path d="M30.8733 30.551C30.6472 30.3607 30.4211 30.1386 30.2273 29.8848C30.2596 30.202 30.2596 30.551 30.2596 30.8683C30.4534 30.7731 30.6795 30.6462 30.8733 30.551Z" fill="#03A06C"/>
<path d="M13.8184 30.6779L14.0445 30.7731L14.1737 30.6779L14.5291 30.8683C14.4968 30.551 14.4968 30.202 14.5614 29.8848C14.3676 30.1703 14.1091 30.4241 13.8184 30.6779Z" fill="#03A06C"/>
<path d="M11.2004 32.5179L16.6596 35.0559L15.8197 33.7552L11.5881 31.7883L11.2004 32.5179Z" fill="#03A06C"/>
<path d="M12.0408 30.8365L11.6855 31.5662L15.5618 33.3745L14.6896 32.0738L12.0408 30.8365Z" fill="#03A06C"/>
<path d="M29.1613 27.7275C29.5812 28.7427 30.2273 29.6944 31.0672 30.4241C31.4225 30.2337 31.8101 30.0434 32.1654 29.8213C32.1331 29.5358 32.1008 29.2186 32.0039 28.933C31.0349 28.3303 30.195 27.6006 29.4843 26.744C29.452 27.093 29.3228 27.4102 29.1613 27.7275Z" fill="#03A06C"/>
<path d="M31.648 26.522C32.8755 27.2834 34.103 27.8862 35.5566 28.0448C35.9443 27.8227 36.3319 27.6324 36.7195 27.4103C36.235 26.9661 35.6859 26.5854 35.1044 26.3316C33.6831 26.1413 32.3264 25.6654 31.0666 24.9675C31.0666 24.9675 31.0666 24.9675 31.0343 24.9675C31.3896 25.3799 31.5834 25.9192 31.648 26.4585V26.522Z" fill="#03A06C"/>
<path d="M29.6136 26.522C30.6796 27.7275 31.7779 28.7427 33.2638 29.282C33.6837 29.06 34.1359 28.8062 34.5559 28.5841C34.3944 28.3303 34.2005 28.1082 33.9744 27.9179C33.1023 27.6006 32.2624 27.1882 31.4871 26.6806H31.4548C31.3579 26.6806 31.261 26.6806 31.1964 26.7123C30.6473 26.6806 30.1304 26.5537 29.6782 26.2682C29.6459 26.3634 29.6136 26.4268 29.6136 26.522Z" fill="#03A06C"/>
<path d="M33.0053 29.4089C32.7791 29.3137 32.553 29.2185 32.3269 29.0916C32.3592 29.282 32.3915 29.5041 32.4238 29.6944L33.0053 29.4089Z" fill="#03A06C"/>
<path d="M14.0116 31.0269L12.3319 30.2338L12.1381 30.6145L14.4638 31.7248L14.0762 31.1221L14.0116 31.0269Z" fill="#03A06C"/>
<path d="M22.3132 34.9291L22.1194 34.6435L20.7627 34.009L21.6026 35.278C21.8287 35.1511 22.0548 35.056 22.3132 34.9291Z" fill="#03A06C"/>
<path d="M28.3531 30.5193C28.3854 31.0269 28.2885 31.5345 28.0947 31.9787C28.45 31.7883 28.773 31.6297 29.1283 31.4393C28.8376 31.1538 28.5792 30.8366 28.3531 30.5193Z" fill="#03A06C"/>
<path d="M20.9567 34.7387L20.5691 34.1359L20.5045 34.0407L16.1437 32.0103L16.5959 32.7083L20.9567 34.7387Z" fill="#03A06C"/>
<path d="M16.692 30.1703C16.6597 30.9317 16.692 31.6931 16.9181 32.1055L17.0473 32.169C17.3058 31.8517 17.5319 31.5345 17.7257 31.1855V31.0904V30.2972C17.4673 30.1069 17.2088 29.8848 16.9827 29.631C16.9181 29.8214 16.8212 29.98 16.692 30.1703Z" fill="#03A06C"/>
<path d="M18.5655 31.2807H17.9517C17.8548 31.4076 17.7579 31.5345 17.661 31.6931C17.661 31.9786 17.6933 32.2642 17.7579 32.518L18.4686 32.8352C18.6624 32.5497 18.8562 32.2642 19.0177 31.9469C18.8562 31.7566 18.6947 31.5345 18.5655 31.2807Z" fill="#03A06C"/>
<path d="M16.1755 31.7883L16.6278 32.0104C16.5309 31.5345 16.4663 31.0269 16.4986 30.5193C16.2725 30.8366 16.014 31.1221 15.7556 31.4076L16.0463 31.5345L16.1755 31.7883Z" fill="#03A06C"/>
<path d="M28.1273 30.1703C28.0304 30.0117 27.9335 29.8213 27.8366 29.6627C27.6105 29.8848 27.3843 30.1069 27.1259 30.2972V31.2807C27.3197 31.5662 27.5458 31.8517 27.8043 32.1055C28.0627 31.6614 28.1596 30.9952 28.1273 30.1703Z" fill="#03A06C"/>
<path d="M26.4799 6.97952L26.2537 6.82089C26.0599 6.82089 25.8661 6.91607 25.7692 7.07469C25.2847 7.70919 25.9307 8.34368 26.2537 8.62921L26.3506 8.59748C26.5445 8.56576 26.7383 8.56576 26.9321 8.53403C26.9644 7.89954 26.8675 7.26504 26.4799 6.97952Z" fill="#03A06C"/>
<path d="M24.7679 33.66C24.7679 33.6282 24.7679 33.5648 24.7679 33.5331C24.5741 33.4062 24.4126 33.2475 24.2187 33.1206C23.7988 33.311 23.3466 33.4062 22.8943 33.4379C23.0559 33.7551 23.2497 34.0407 23.4435 34.3262C23.8957 34.0724 24.348 33.8503 24.7679 33.66Z" fill="#03A06C"/>
<path d="M26.8674 32.6131C26.9966 32.3276 27.0935 32.0104 27.1581 31.6931C27.0612 31.5662 26.9643 31.4393 26.8674 31.2807H26.2536C26.1244 31.5345 25.9629 31.7566 25.7691 31.9469C25.9306 32.2642 26.1567 32.5497 26.3829 32.8352C26.5444 32.7718 26.7059 32.6766 26.8674 32.6131Z" fill="#03A06C"/>
<path d="M25.9952 33.0255C25.9629 32.8669 25.9306 32.74 25.8983 32.5814C25.8014 32.4227 25.7045 32.2641 25.6076 32.1372C25.2846 32.4862 24.8646 32.7717 24.4447 32.9938C24.6385 33.1841 24.8646 33.3427 25.1231 33.5014C25.4138 33.3427 25.7045 33.1841 25.9952 33.0255Z" fill="#03A06C"/>
<path d="M15.2708 26.4585C15.2708 26.395 15.2385 26.2998 15.2385 26.2364C14.754 26.5219 14.2372 26.6805 13.688 26.7123C13.5911 26.7123 13.4942 26.7123 13.4296 26.6805H13.3973C12.622 27.1881 11.7822 27.6006 10.91 27.9178C10.587 28.2033 10.2963 28.5523 10.0378 28.9013L11.1684 29.4406C12.8159 28.933 14.1403 27.7592 15.2708 26.4585Z" fill="#03A06C"/>
<path d="M26.4156 8.75603V9.20018C27.1585 9.16846 27.8046 9.04156 28.6445 9.10501V8.78776C28.5153 8.78776 28.4183 8.75603 28.2891 8.75603C28.2568 8.75603 28.2568 8.75603 28.2245 8.75603C27.7723 8.72431 27.3201 8.72431 26.8678 8.75603C26.8355 8.75603 26.8032 8.75603 26.8032 8.75603C26.674 8.72431 26.5448 8.72431 26.4156 8.75603Z" fill="#03A06C"/>
<path d="M14.1726 24.9357C13.7527 25.3481 13.4943 25.8874 13.4297 26.4902C14.0434 26.5219 14.6895 26.3633 15.2063 26.0143C15.1417 25.6971 15.1417 25.3481 15.1094 25.0309C15.1094 24.7454 15.1417 24.4281 15.174 24.1426C14.9156 24.4916 14.5603 24.7771 14.1726 24.9357Z" fill="#03A06C"/>
<path d="M20.0517 33.5965L20.4393 33.7868L20.5362 33.7234L21.4407 34.1358C21.6022 33.9137 21.7314 33.6599 21.8606 33.4061C21.4084 33.3744 20.9562 33.2475 20.5362 33.0889C20.4393 33.2158 20.2132 33.4696 20.0517 33.5965Z" fill="#03A06C"/>
<path d="M13.1718 26.522V26.4586C13.2364 25.9193 13.4302 25.4117 13.7855 24.9675H13.7532C12.5257 25.6655 11.1367 26.1413 9.71542 26.3317C8.84325 26.7758 8.10029 27.2517 7.80957 27.7593L8.58483 28.1083C10.3615 28.0766 11.7828 27.3786 13.1718 26.522Z" fill="#03A06C"/>
<path d="M18.9213 32.6131C18.889 32.7083 18.7921 32.9303 18.7921 32.9938L19.8581 33.5014C20.0196 33.3745 20.2457 33.1207 20.3749 32.9938C19.955 32.7717 19.5351 32.4862 19.212 32.1372C19.1151 32.2958 19.0182 32.4545 18.9213 32.6131Z" fill="#03A06C"/>
<path d="M12.3639 29.8531C12.3962 29.5993 12.4285 29.3772 12.4931 29.1234C12.2347 29.2503 11.9117 29.3772 11.621 29.5041L12.3639 29.8531Z" fill="#03A06C"/>
<path d="M15.3359 26.744C14.5929 27.6323 13.7531 28.362 12.784 28.9648C12.6871 29.3455 12.5902 29.7262 12.5579 30.1068L13.6561 30.6144C14.5606 29.7896 15.2713 28.8061 15.7235 27.664C15.5297 27.3785 15.4328 27.0613 15.3359 26.744Z" fill="#03A06C"/>
<path d="M15.4962 31.3124C16.0453 30.7731 16.4976 30.1386 16.8206 29.4723C16.4006 29.0282 16.0453 28.5206 15.7546 27.9496C15.4962 28.5206 15.1732 29.0599 14.8178 29.5675C14.7532 30.0434 14.7209 30.5193 14.7855 30.9951L15.4962 31.3124Z" fill="#03A06C"/>
<path d="M21.6345 43.0823C21.8283 43.5265 22.0867 43.9389 22.442 44.3196C22.7973 43.9706 23.0881 43.5582 23.3142 43.0823C22.9912 43.3361 21.9575 43.3678 21.6345 43.0823Z" fill="#03A06C"/>
<path d="M23.7986 42.7016L24.4123 43.3043L24.6384 43.0823L23.9924 42.4478C23.9601 42.5429 23.8955 42.6381 23.7986 42.7016Z" fill="#03A06C"/>
<path d="M22.4747 39.8463C21.5703 39.8463 20.8596 40.576 20.8596 41.4325C20.8596 42.3208 21.6026 43.0188 22.4747 43.0188C23.3792 43.0188 24.0899 42.2891 24.0899 41.4325C24.1222 40.576 23.3792 39.8463 22.4747 39.8463ZM22.927 40.7346C22.9593 40.6077 23.0239 40.7346 23.0562 40.7663C23.0885 40.7663 23.1208 40.7663 23.1531 40.798C23.1531 40.8298 23.0885 40.8298 23.1208 40.9249C23.0885 40.9249 23.0239 40.8615 23.0562 40.9567C23.0239 40.9567 23.0239 40.9249 23.0239 40.9249C23.0239 40.8932 23.0885 40.8615 23.0885 40.798C23.0885 40.7346 22.9916 40.7346 22.9916 40.7346C23.0239 40.798 22.9593 40.8615 22.927 40.8615H22.8947V40.8298C22.927 40.8298 22.9916 40.798 22.9916 40.7663C22.9916 40.7663 22.9593 40.7346 22.927 40.7346ZM22.6363 41.2422C22.6363 41.3056 22.6363 41.3373 22.6686 41.4008H22.2486C22.3132 41.3056 22.3132 41.147 22.184 41.0836C22.1517 41.0518 22.0871 41.0518 22.0225 41.0518C21.9902 41.0518 21.9902 41.0836 21.9579 41.0836C21.9579 41.0518 21.9256 41.0518 21.9256 41.0201C21.9579 40.9249 22.2163 40.9884 22.3455 40.9249C22.3455 40.9567 22.3132 41.0201 22.2486 41.0201C22.3455 41.1153 22.3778 41.2105 22.3778 41.3373C22.3778 41.2105 22.4424 41.1153 22.507 41.0201C22.4747 40.9884 22.4424 40.9567 22.4101 40.9249C22.5393 40.9567 22.7978 40.8932 22.8301 41.0201C22.8301 41.0518 22.8301 41.0836 22.7978 41.0836C22.7978 41.0518 22.7655 41.0518 22.7332 41.0518C22.7655 41.0201 22.6363 41.1153 22.6363 41.2422ZM22.8624 41.1153C22.8301 41.0836 22.7978 41.0836 22.7655 41.0836C22.7978 41.0518 22.7978 41.0518 22.8301 41.0518C22.8301 41.0835 22.8624 41.0836 22.8624 41.1153ZM22.3455 41.8132C22.3455 41.7815 22.3455 41.7498 22.3778 41.718C22.3778 41.718 22.3778 41.718 22.3778 41.6863V41.6546C22.3778 41.6546 22.3778 41.6863 22.3455 41.6863V41.6546V41.6229C22.3778 41.6229 22.3778 41.6229 22.4101 41.6229H22.4424C22.4424 41.6229 22.4424 41.6229 22.4424 41.5911C22.4101 41.5911 22.3778 41.5911 22.3455 41.5594C22.3455 41.5277 22.3778 41.5277 22.4101 41.5277L22.3778 41.4642L22.5393 41.9084C22.4747 41.9401 22.4101 41.9401 22.3778 41.8767C22.3778 41.8449 22.3455 41.8449 22.3455 41.8132C22.3132 41.8132 22.3132 41.8132 22.3455 41.8132C22.3132 41.7815 22.3132 41.7815 22.3455 41.8132C22.3455 41.7815 22.3455 41.7815 22.3455 41.8132ZM22.4424 41.496H22.4747C22.4747 41.496 22.4747 41.496 22.4424 41.496C22.4747 41.4642 22.4747 41.4642 22.507 41.4642C22.507 41.4642 22.5393 41.4642 22.5393 41.496C22.5393 41.496 22.5393 41.496 22.5393 41.5277C22.5393 41.5277 22.5393 41.5277 22.5393 41.5594C22.5393 41.5594 22.5393 41.5911 22.5717 41.5911C22.604 41.5594 22.6363 41.5594 22.6686 41.5594C22.7009 41.5911 22.7009 41.6229 22.6686 41.6229V41.5911V41.6229V41.6546C22.7009 41.6546 22.7332 41.6546 22.7332 41.6863V41.718C22.7332 41.6863 22.7009 41.6863 22.7009 41.6863C22.7009 41.6863 22.7009 41.6863 22.7009 41.718C22.7009 41.7498 22.7009 41.7815 22.7332 41.8132C22.7655 41.7815 22.7978 41.7815 22.7978 41.8132C22.7978 41.8449 22.7655 41.8767 22.7332 41.8767L22.4424 41.496ZM22.2163 41.0836C22.184 41.0836 22.1517 41.0836 22.1194 41.1153C22.1194 41.0836 22.1194 41.0835 22.1517 41.0518C22.184 41.0518 22.184 41.0836 22.2163 41.0836ZM22.7655 40.6394L22.7978 40.6711L22.7655 40.7029L22.7332 40.6711L22.7655 40.6394ZM22.4747 40.4491L22.5393 40.5125L22.4747 40.576L22.4101 40.5125L22.4747 40.4491ZM22.184 40.6394L22.2163 40.6711L22.184 40.7029L22.1517 40.6711L22.184 40.6394ZM22.1517 40.7663L22.2163 40.798L22.2809 40.7663C22.3132 40.7663 22.3455 40.798 22.3132 40.8615V40.8932C22.3778 40.8932 22.4101 40.8298 22.4424 40.798C22.4101 40.7663 22.4101 40.7346 22.4101 40.7346C22.3778 40.6711 22.4101 40.6394 22.4747 40.6394L22.5393 40.7346L22.604 40.6394C22.6686 40.6394 22.7009 40.6711 22.6686 40.7346C22.6686 40.7663 22.6363 40.798 22.6363 40.798C22.6363 40.8615 22.7009 40.8932 22.7655 40.8932V40.8615C22.7332 40.798 22.7655 40.7663 22.7978 40.7663L22.8624 40.798L22.927 40.7663C22.9593 40.7663 22.9916 40.798 22.9593 40.8615L22.927 40.8932H22.7978C22.7009 40.8932 22.6363 40.8615 22.604 40.7663H22.507C22.4747 40.8298 22.4101 40.8932 22.3455 40.8932H22.2163L22.184 40.8615C22.0548 40.798 22.0871 40.7663 22.1517 40.7663ZM21.8933 40.7346C21.9256 40.7029 21.9902 40.6077 22.0225 40.7029C21.9902 40.7346 21.9902 40.7663 21.9902 40.8298C22.0225 40.8615 22.0225 40.8615 22.0548 40.8615C22.0548 40.8615 22.0548 40.8615 22.0548 40.8932C21.9902 40.8932 21.9256 40.8615 21.9256 40.798V40.7663C21.9256 40.7663 21.8287 40.7663 21.8287 40.8298C21.8287 40.8615 21.8933 40.8932 21.8933 40.9567C21.8933 40.9884 21.8933 40.9884 21.861 40.9884C21.8933 40.9249 21.7964 40.9567 21.7964 40.9567C21.8287 40.8615 21.7641 40.8615 21.7641 40.8298C21.8287 40.7663 21.861 40.7663 21.8933 40.7346ZM21.4734 41.3056C21.4734 41.3056 21.4734 41.2739 21.4734 41.3056C21.4734 41.2739 21.4734 41.2739 21.4734 41.3056C21.5057 41.3056 21.6026 41.3056 21.538 41.2422C21.4734 41.2104 21.4411 41.1153 21.4734 41.0201C21.5057 41.0518 21.6349 41.0836 21.6026 41.0201C21.538 40.9567 21.538 40.8298 21.6026 40.7663C21.7318 40.9567 21.861 41.1153 22.0225 41.2422C21.9902 41.2739 21.9902 41.3056 21.9902 41.3373C21.9902 41.4008 22.0548 41.4325 22.0871 41.4642C22.1194 41.4642 22.184 41.4642 22.2163 41.4642V41.6546C22.184 41.5911 22.1194 41.5594 22.0871 41.5594C22.0871 41.6229 22.0548 41.6863 22.0225 41.718C21.9902 41.7498 21.9256 41.7815 21.861 41.7498C21.8933 41.7498 21.8933 41.6546 21.861 41.6863C21.7964 41.718 21.7318 41.718 21.6995 41.6546C21.7318 41.6546 21.7641 41.5911 21.6995 41.5911C21.6349 41.6229 21.5703 41.5911 21.538 41.5277C21.538 41.5277 21.538 41.5277 21.538 41.496C21.5703 41.496 21.6672 41.4642 21.5703 41.4325C21.538 41.4325 21.4734 41.3691 21.4734 41.3056ZM23.0562 42.1622C23.0239 42.1622 22.9593 42.1622 22.927 42.0987C22.8624 42.067 22.7978 42.0353 22.7332 42.0353C22.7332 42.0353 22.7009 42.0353 22.7009 42.0036C22.7332 41.9401 22.6686 41.8767 22.604 41.9084C22.5717 41.9401 22.5393 41.9718 22.507 42.0353C22.6363 42.067 22.7332 42.1305 22.7978 42.2256C22.7978 42.2574 22.7655 42.2891 22.7332 42.3208C22.7009 42.1939 22.6363 42.2256 22.6686 42.3208C22.6686 42.3525 22.6363 42.3843 22.604 42.416C22.604 42.3208 22.5393 42.3208 22.5393 42.416C22.5393 42.4477 22.507 42.4794 22.4747 42.4794C22.4424 42.4794 22.4101 42.4477 22.4101 42.416C22.4101 42.3208 22.3455 42.3208 22.3455 42.416C22.3132 42.416 22.2809 42.3843 22.2809 42.3208C22.3132 42.2256 22.2486 42.2256 22.2163 42.3208C22.184 42.3208 22.1517 42.2891 22.1517 42.2256C22.2163 42.1305 22.3132 42.067 22.4424 42.0353C22.4424 42.0036 22.4101 41.9401 22.3455 41.9084C22.3132 41.8767 22.2809 41.8767 22.2486 41.9084C22.2163 41.9401 22.2163 41.9718 22.2486 42.0036V42.0353C22.184 42.0353 22.1194 42.067 22.0548 42.0987L22.1194 42.1305C22.1194 42.1305 22.1194 42.1622 22.0871 42.1622C22.0871 42.1622 22.0871 42.1622 22.0548 42.1622L21.9902 42.0987C21.9579 42.0987 21.9579 42.0987 21.9256 42.0987C21.8933 42.0987 21.861 42.067 21.861 42.0353C21.861 42.0036 21.861 42.0036 21.861 42.0036L21.6672 41.8132C21.6349 41.8132 21.6026 41.8132 21.6349 41.8132C21.6026 41.8449 21.538 41.8132 21.538 41.7815C21.538 41.7815 21.538 41.7815 21.538 41.7498H21.5703C21.538 41.718 21.538 41.6863 21.5703 41.6546C21.6026 41.6546 21.6349 41.6546 21.6672 41.6546V41.6229C21.6995 41.6229 21.7318 41.6546 21.7318 41.6863C21.7318 41.6863 21.7318 41.6863 21.7318 41.718C21.7641 41.718 21.7641 41.7498 21.7641 41.7498L21.9579 41.9401H21.9902C22.0225 41.9401 22.0225 41.9401 22.0548 41.9718C22.1194 41.9718 22.1517 41.9718 22.2163 41.9401C22.0871 41.7815 22.184 41.6863 22.3132 41.6863V41.7815C22.3132 41.8132 22.3455 41.8449 22.3778 41.8449H22.4424C22.4747 41.9084 22.5393 41.9084 22.5717 41.8767C22.604 41.8767 22.604 41.8449 22.604 41.8449H22.6686C22.7009 41.8449 22.7332 41.8132 22.7332 41.7815V41.6863C22.8301 41.6863 22.927 41.7815 22.8301 41.9401C22.8624 41.9718 22.927 41.9718 22.9593 41.9718C22.9593 41.9401 22.9916 41.9084 23.0239 41.9084L23.0885 41.9718L23.1531 41.9084C23.1854 41.9401 23.2177 41.9718 23.2177 42.0036C23.1531 42.0987 23.1208 42.1305 23.0562 42.1622ZM22.9916 41.9084L23.0239 41.8767L23.0562 41.9084L23.0239 41.9401L22.9916 41.9084ZM23.4761 41.2739C23.4761 41.3374 23.4438 41.4325 23.3792 41.4325C23.2823 41.4642 23.3792 41.496 23.4115 41.496C23.4115 41.5594 23.3469 41.5911 23.2823 41.5911C23.2823 41.5911 23.2823 41.5911 23.25 41.5911C23.1854 41.5911 23.2177 41.6546 23.25 41.6546C23.2177 41.718 23.1531 41.718 23.0885 41.6863C23.0562 41.6546 23.0562 41.7498 23.0885 41.7498C23.0562 41.7815 22.9916 41.7815 22.927 41.7498C22.8947 41.6863 22.8624 41.6546 22.8624 41.5911C22.7978 41.5911 22.7332 41.6229 22.7332 41.6863V41.496C22.7655 41.496 22.7978 41.5277 22.8624 41.496C22.927 41.496 22.9593 41.4325 22.9593 41.3691C22.9593 41.3373 22.9593 41.3056 22.927 41.2739C23.0885 41.147 23.25 40.9884 23.3469 40.798C23.4115 40.8615 23.4115 40.9884 23.3469 41.0518C23.3146 41.1153 23.4438 41.0835 23.4761 41.0518C23.5084 41.1153 23.4761 41.2105 23.4115 41.2739C23.3469 41.2739 23.4438 41.3056 23.4761 41.2739Z" fill="#03A06C"/>
<path d="M21.5379 39.8781C21.6025 39.6877 21.6671 39.4974 21.6994 39.307L19.3413 40.3539C19.3413 40.8615 19.4059 41.3374 19.5351 41.8133C19.9551 41.6864 20.3104 41.4643 20.6334 41.1788C20.7303 40.6394 21.0533 40.1636 21.5379 39.8781Z" fill="#03A06C"/>
<path d="M20.3107 43.0823L20.5368 43.3043L21.1506 42.7016C21.086 42.6381 21.0214 42.5429 20.9568 42.4478L20.3107 43.0823Z" fill="#03A06C"/>
<path d="M27.0297 37.118C26.8681 37.1815 26.6743 37.2449 26.5128 37.3084L27.4496 37.7525L27.062 37.1498L27.0297 37.118Z" fill="#03A06C"/>
<path d="M22.2805 38.8312L21.0207 36.1663C17.7258 37.5305 14.431 38.7994 11.1361 39.9733L11.3945 40.7664C11.4592 40.925 11.2653 41.0836 11.2653 41.3057C11.2976 41.7816 11.1361 42.2575 10.8131 42.6064L10.5547 42.8285L10.4578 42.5113L9.74712 40.4491C9.68251 40.4809 9.61791 40.4809 9.58561 40.5126L10.0055 41.7816C10.1024 42.2257 10.0378 42.7016 9.87633 43.114L9.77942 43.3361L9.5533 43.2092C9.16567 42.9237 8.87495 42.543 8.71344 42.0988C8.64883 41.9719 8.55193 42.0037 8.51962 41.8768L8.1966 40.9885C8.13199 41.0202 8.06739 41.0202 8.00278 41.0519L8.68114 43.0189L8.77804 43.3361L8.45502 43.3044C7.97048 43.2726 7.55055 43.0189 7.32443 42.6064C7.22752 42.4795 7.00141 42.5747 6.96911 42.4161L6.67838 41.5278C6.03233 41.7499 5.38628 41.9402 4.74023 42.1623C4.90175 43.5582 5.45089 44.8906 6.35536 46.001C7.93818 45.2396 9.5533 44.4782 11.2007 43.7485C11.2007 43.6533 11.233 43.5582 11.2976 43.463L11.9437 42.3844C11.8791 42.1623 11.8791 41.9085 11.8791 41.6547C12.3313 41.6864 12.7189 41.9402 12.9451 42.3209C13.0097 42.543 13.0097 42.765 12.9128 42.9554C15.9492 41.5595 19.1148 40.1636 22.2805 38.8312Z" fill="#03A06C"/>
<path d="M28.6117 37.6891L27.255 37.0546L30.8406 42.5113L31.3897 42.7651C31.2928 42.5113 31.2928 42.2258 31.4543 41.972L28.6117 37.6891Z" fill="#03A06C"/>
<path d="M25.5107 39.434L25.8984 40.005L25.963 40.1002L30.3238 42.1306L29.8716 41.4644L25.5107 39.434Z" fill="#03A06C"/>
<path d="M24.6392 38.1015L25.2853 39.085L29.6461 41.1154L28.7739 39.8147L24.8976 38.0063C24.833 38.0381 24.7361 38.0698 24.6392 38.1015Z" fill="#03A06C"/>
<path d="M25.2199 37.8793L28.5471 39.4339L27.6749 38.1331L26.2536 37.4669C25.8983 37.5938 25.5752 37.7207 25.2199 37.8793Z" fill="#03A06C"/>
<path d="M24.1217 38.3236L24.2509 38.5457L24.0248 38.6409L23.831 38.7043L24.3478 39.4974L25.7045 40.1319L24.4124 38.165C24.3155 38.2284 24.2186 38.2602 24.1217 38.3236Z" fill="#03A06C"/>
<path d="M23.4117 39.8781C23.8962 40.1636 24.2193 40.6395 24.3162 41.2105C24.6392 41.496 25.0268 41.6864 25.4145 41.8133C25.5437 41.3374 25.6083 40.8298 25.6083 40.3222L23.2179 39.1801C23.2825 39.4339 23.3471 39.656 23.4117 39.8781Z" fill="#03A06C"/>
<path d="M9.55336 16.4652H9.52106C8.45508 16.0528 7.74442 15.45 7.3891 14.7203C6.29081 14.0858 5.35404 13.2293 4.67569 12.1823C4.12655 11.6747 3.60971 11.1354 3.15747 10.5327C3.15747 13.2927 4.99871 15.101 6.93686 16.1797C6.83995 16.021 6.77535 15.8307 6.74305 15.6403L6.58153 15.0059L7.09837 15.4183C7.80903 15.9259 8.64889 16.2748 9.55336 16.4652Z" fill="#03A06C"/>
<path d="M12.0077 41.9719L12.2661 43.0188L11.9754 42.6381L11.4263 43.5581C11.2648 43.8119 11.3617 43.9388 11.5878 43.8436L11.7816 43.7802C12.0723 43.6533 12.2984 43.4629 12.46 43.2091L12.5569 43.0505C13.106 42.1622 12.0077 41.9719 12.0077 41.9719Z" fill="#03A06C"/>
<path d="M9.06856 18.2101C8.22869 17.8928 7.51804 17.29 7.0658 16.4969C5.6768 15.8307 4.51391 14.8155 3.70634 13.5148C3.1895 13.1341 2.70497 12.6899 2.28503 12.1823C2.38194 14.9424 4.74002 17.068 7.13041 18.2418C7.09811 18.1783 7.0658 18.1149 7.0335 18.0514L6.80738 17.5438L7.32422 17.7342C7.87337 17.9563 8.48711 18.1149 9.06856 18.2101Z" fill="#03A06C"/>
<path d="M2.89883 10.5327V9.92988L3.28646 10.4058C3.64179 10.8182 3.96481 11.1989 4.28784 11.5478C4.02942 11.0085 3.90021 10.4058 3.8033 9.83471C2.80192 8.40709 1.96206 7.07465 1.67134 5.996C1.05759 8.81951 1.83285 10.723 3.12495 12.2775C2.96344 11.7065 2.89883 11.1037 2.89883 10.5327Z" fill="#03A06C"/>
<path d="M2.05928 12.1824L2.02698 11.5162L2.44691 12.0238C2.80224 12.4679 3.18987 12.8486 3.6421 13.1976L2.96375 12.4045C2.25309 11.5796 1.73625 10.5961 1.44553 9.54923C1.31632 9.32716 1.18711 9.13681 1.09021 8.91473C0.476458 11.8017 1.51014 13.1976 2.76993 14.6569C2.35 13.8955 2.09158 13.039 2.05928 12.1824Z" fill="#03A06C"/>
<path d="M7.77614 40.9885C7.71153 40.7664 7.48541 40.6712 7.2593 40.7347L7.06548 40.7981C6.83937 40.8616 6.74246 41.0837 6.80706 41.3057L7.09779 42.194C7.13009 42.3209 7.42081 42.2575 7.48541 42.4161C7.64693 42.8285 8.03456 43.0823 8.48679 43.114L8.29298 42.5747L7.67923 42.3527L8.19607 42.3209L7.77614 40.9885Z" fill="#03A06C"/>
<path d="M11.4275 36.2932C11.0722 36.198 10.7492 36.0394 10.4584 35.8491H10.4261C9.9093 35.8173 9.39247 35.7222 8.90793 35.5953L8.94023 35.3732C9.32786 35.4684 9.74779 35.5318 10.1677 35.5953C9.36016 34.8656 9.26326 33.8504 9.55398 32.8035L7.42201 31.82C6.84057 32.6766 5.80689 33.1207 4.77321 32.9938C5.67768 33.9773 6.80827 34.707 8.06806 35.1511L8.00346 35.3415C6.61445 34.8339 5.38696 34.009 4.45018 32.8986C4.09486 32.8035 3.73953 32.7083 3.4165 32.5497C3.96565 35.0877 9.45707 37.6256 11.4275 36.2932Z" fill="#03A06C"/>
<path d="M9.68271 43.0506C9.84423 42.6699 9.90883 42.2892 9.81192 41.8768L9.32739 40.4491C9.26278 40.2588 9.06897 40.1636 8.87515 40.2271L8.58443 40.3222C8.39061 40.3857 8.29371 40.576 8.35831 40.7664L8.68134 41.7181L9.42429 42.0671L8.93976 42.0988C9.10127 42.5112 9.35969 42.8285 9.68271 43.0506Z" fill="#03A06C"/>
<path d="M8.22916 20.4625C8.19686 20.399 8.16456 20.3673 8.13226 20.3038L7.80923 19.7962L8.35837 19.9866C8.81061 20.0818 9.26284 20.1452 9.71508 20.1769C8.7137 19.9866 7.84153 19.4155 7.29239 18.559C5.67727 17.8293 4.25596 16.7189 3.18997 15.323C2.80234 15.0375 2.41471 14.752 2.05939 14.403C2.70544 17.2265 5.58036 19.6693 8.22916 20.4625Z" fill="#03A06C"/>
<path d="M10.4584 22.3026C10.5553 22.2074 10.6522 22.1122 10.7814 22.0171C9.90922 21.8267 9.10165 21.4143 8.48791 20.7798C7.26041 20.4308 6.09752 19.8598 5.06384 19.0666C4.32089 18.4956 3.67484 17.8611 3.12569 17.1314C2.89958 17.068 2.64116 17.0363 2.41504 17.0363C4.12707 20.2405 6.64667 22.1757 10.4584 22.3026Z" fill="#03A06C"/>
<path d="M7.22872 14.3713C7.19642 14.2127 7.16412 14.0541 7.13182 13.8637L7.09951 13.3879L7.48714 13.6416C7.90708 13.9272 8.35931 14.181 8.81154 14.403C8.35931 13.9906 8.06859 13.3879 8.03629 12.7851C6.09814 11.8651 5.16136 10.723 3.99847 9.29535C4.12768 11.8016 5.54899 13.261 7.22872 14.3713Z" fill="#03A06C"/>
<path d="M37.819 41.9719L36.3331 45.0809L37.1084 45.4299L38.6266 42.3526L37.819 41.9719Z" fill="#03A06C"/>
<path d="M38.5939 42.9553L39.3691 43.3043C39.466 43.336 39.5306 43.3995 39.5952 43.4946C39.6276 43.4629 39.6276 43.4629 39.6276 43.4312C39.7245 43.2408 39.6276 42.987 39.4337 42.8919L38.7554 42.5746L38.5939 42.9553Z" fill="#03A06C"/>
<path d="M38.3032 45.3666L37.5602 45.0176L37.3664 45.3983L37.9801 45.6838C38.174 45.779 38.4324 45.6838 38.5293 45.4934C38.5293 45.4617 38.5616 45.43 38.5616 45.3983H38.5293C38.4647 45.43 38.3678 45.3983 38.3032 45.3666Z" fill="#03A06C"/>
<path d="M34.5231 40.3223C34.62 40.1319 34.5231 39.8781 34.3292 39.7829L34.1677 39.6878C33.9739 39.5926 33.7155 39.6878 33.6186 39.8781L33.2956 40.5443C33.1664 40.7664 33.3925 40.8616 33.3279 41.0837C33.1664 41.623 33.5863 42.2892 33.5863 42.2892L33.8447 41.7499L33.877 41.6547L33.5217 40.8933L34.0062 41.4009L34.5231 40.3223Z" fill="#03A06C"/>
<path d="M34.3294 43.5264L34.1356 43.9071L36.1707 44.8588L36.3645 44.4781L34.3294 43.5264Z" fill="#03A06C"/>
<path d="M34.7493 40.2905L34.9431 40.3857C34.9431 40.3539 34.9754 40.3539 34.9754 40.3539C34.8785 40.2588 34.8139 40.1636 34.717 40.0684C34.7493 40.1319 34.7493 40.1953 34.7493 40.2905Z" fill="#03A06C"/>
<path d="M37.495 18.559C36.9458 19.3839 36.0736 19.9549 35.0723 20.177C35.5245 20.177 35.9767 20.1136 36.429 19.9867L37.0104 19.828L36.6874 20.3356C36.6551 20.3991 36.6228 20.4308 36.5905 20.4943C39.2393 19.7011 42.1142 17.2583 42.7603 14.4348C42.4049 14.7521 42.0173 15.0693 41.6297 15.3548C40.5314 16.7507 39.1424 17.8611 37.495 18.559Z" fill="#03A06C"/>
<path d="M39.7556 19.0666C38.7542 19.8597 37.5914 20.4308 36.3316 20.7798C35.7178 21.4143 34.9103 21.8584 34.0381 22.017C34.1673 22.1122 34.2642 22.2074 34.3611 22.3026C38.1405 22.1757 40.6924 20.2404 42.4044 17.0045C42.146 17.0045 41.9199 17.0362 41.6938 17.0997C41.1446 17.8294 40.4986 18.4956 39.7556 19.0666Z" fill="#03A06C"/>
<path d="M34.5562 22.5246C34.6531 22.6198 34.7177 22.7467 34.7823 22.8418L34.9761 23.0956L34.6531 23.1591C33.8455 23.3494 33.0057 23.4446 32.1658 23.4763C32.1335 23.4763 32.1335 23.4763 32.1012 23.4763C35.6868 23.9522 39.1431 23.3177 41.3074 20.1135C41.1136 20.0501 40.8875 19.9866 40.6291 19.9232C39.0139 21.5094 36.8497 22.4611 34.5562 22.5246Z" fill="#03A06C"/>
<path d="M35.8488 40.4809L35.5581 40.354C35.3966 40.2905 35.1705 40.354 35.1059 40.5126L34.4598 41.8768C34.3306 42.2575 34.3306 42.6699 34.4598 43.0506C34.8152 42.8602 35.1059 42.5747 35.2674 42.194L34.7828 42.1306L35.5581 41.845L35.978 40.925C36.1072 40.7664 36.0426 40.5443 35.8488 40.4809Z" fill="#03A06C"/>
<path d="M39.1749 28.0447C33.9096 30.5827 28.3535 33.1207 22.7329 35.4683L24.025 38.1015C29.6133 35.7856 35.2663 33.66 40.7577 31.8517C40.4993 30.5192 39.9501 29.2185 39.1749 28.0447Z" fill="#03A06C"/>
<path d="M39.9502 44.3195L39.6272 44.1609C39.5303 44.3513 39.3365 44.4782 39.1104 44.4782C39.2073 44.6368 39.2073 44.8589 39.1427 45.0175L39.498 45.1761C39.7564 45.303 40.0471 45.1761 40.1763 44.954C40.3055 44.732 40.2086 44.4464 39.9502 44.3195Z" fill="#03A06C"/>
<path d="M39.4653 44.0658C39.5622 43.8754 39.4653 43.6216 39.2715 43.5264L38.4963 43.1775L38.1409 43.9071L38.9162 44.2561C39.11 44.3513 39.3684 44.2561 39.4653 44.0658Z" fill="#03A06C"/>
<path d="M38.7551 44.4465L38.0122 44.0975L37.6569 44.8272L38.3998 45.1762C38.5936 45.2714 38.8521 45.1762 38.949 44.9858C39.0459 44.7638 38.949 44.5417 38.7551 44.4465Z" fill="#03A06C"/>
<path d="M32.681 42.765L32.9717 43.3044L33.1332 42.9554L32.681 42.765Z" fill="#03A06C"/>
<path d="M30.0013 35.976C30.1306 36.3249 30.2598 36.6422 30.4213 36.9594L31.0027 36.2615L31.1642 36.3884L30.5182 37.1498C30.6151 37.3084 30.712 37.4987 30.8089 37.6574L31.3257 37.0546L31.4873 37.1815L30.9381 37.8477C31.035 38.0063 31.1642 38.165 31.2934 38.2919L31.778 37.7208L31.9395 37.8477L31.455 38.4188C31.8426 38.7995 32.2625 39.1484 32.7471 39.4022L33.3931 39.7195C33.5546 39.4657 33.8776 39.3388 34.1361 39.4657L34.2976 39.5291L34.3299 39.5609C33.1024 38.1332 32.2948 36.7691 32.1656 35.0559L30.0013 35.976Z" fill="#03A06C"/>
<path d="M35.8802 41.6864L36.1387 41.8133L36.3325 41.4009L36.0741 41.3057L35.8802 41.6864Z" fill="#03A06C"/>
<path d="M29.5811 38.7677L33.1344 40.4174L33.3282 40.0049L29.1289 38.0697L29.5811 38.7677Z" fill="#03A06C"/>
<path d="M33.0695 40.6712L33.1018 40.6395L29.8392 39.1167L30.7114 40.4174L33.1018 41.5278C33.1018 41.3692 33.1664 41.1788 33.1341 41.1154C33.0372 40.9567 33.0049 40.7981 33.0695 40.6712Z" fill="#03A06C"/>
<path d="M32.5198 42.4479L33.2305 42.7651L33.3597 42.4796C33.1982 42.2892 33.1013 42.0354 33.069 41.7816L30.937 40.7664L31.6154 41.7816C31.8738 41.5913 32.2291 41.4961 32.5521 41.5278L32.3906 42.0989L32.5198 42.4479Z" fill="#03A06C"/>
<path d="M32.2616 42.3844L31.9386 42.7334L32.2939 41.7182C32.2939 41.7182 31.1957 41.8134 31.6156 42.7651L31.6802 42.9237C31.8094 43.2093 32.0355 43.4313 32.2939 43.5582L32.4878 43.6534C32.7139 43.7486 32.8108 43.6217 32.6816 43.3679L32.2616 42.3844Z" fill="#03A06C"/>
<path d="M37.2694 42.6382C37.1725 42.6699 37.0756 42.7016 36.9787 42.7333C36.8495 42.892 36.7203 43.0189 36.5588 43.1457L36.9464 43.3044L37.2694 42.6382Z" fill="#03A06C"/>
<path d="M34.2978 41.8133L34.8469 40.6077L34.6531 40.5126L33.6195 42.765L33.5225 42.6381L33.0703 43.5582L33.8779 43.9389L34.3301 43.0188C34.2009 42.6064 34.1686 42.194 34.2978 41.8133Z" fill="#03A06C"/>
<path d="M37.3661 41.0837L37.1723 41.0202C36.9784 40.925 36.72 41.0202 36.6231 41.2106L36.0417 42.4796L36.5585 42.5747L35.9448 42.7334L35.6863 43.241C36.1386 43.2727 36.5585 43.0189 36.7523 42.6382C36.8492 42.4796 37.1076 42.5747 37.1723 42.4478L37.5599 41.5913C37.6568 41.4009 37.5599 41.1788 37.3661 41.0837Z" fill="#03A06C"/>
<path d="M36.042 42.0037L35.8158 41.8768L35.7189 42.0989C35.6543 42.2258 35.5574 42.0989 35.3313 42.543L35.6866 42.7334L36.042 42.0037Z" fill="#03A06C"/>
<path d="M34.4913 43.336L36.4618 44.2561L36.8171 43.5264L36.3003 43.2726C36.1065 43.3043 35.9449 43.3678 35.7511 43.3678H35.4281L35.5573 43.0505L35.6219 42.9236L35.2343 42.7333C35.0082 42.9871 34.7498 43.1774 34.4913 43.336Z" fill="#03A06C"/>
<path d="M21.1818 35.0877L16.8209 33.0573L17.6931 34.358L20.6326 35.7222C20.891 35.5953 21.1495 35.5001 21.4079 35.3732L21.1818 35.0877Z" fill="#03A06C"/>
<path d="M18.4045 36.7373C18.566 36.6738 18.6952 36.6104 18.8567 36.5469L15.6265 31.6613L14.2698 31.0268L17.8554 36.4835L18.4045 36.7373Z" fill="#03A06C"/>
<path d="M29.1935 9.92997C28.612 9.77134 27.9983 9.86652 27.5137 10.1838C26.9 10.6914 26.0278 10.7548 25.3495 10.4058C24.9618 11.0403 24.122 11.8335 23.379 11.9604C24.0897 12.1824 25.0588 12.119 25.9632 11.1038C25.4141 11.7383 25.0588 12.3411 25.1557 13.0073C25.4787 12.5314 25.8986 12.1507 26.4155 11.8652C26.5447 11.6748 26.7385 11.5162 26.9323 11.421C26.0601 12.4997 26.2216 13.4514 26.3509 13.7687C26.6416 13.1024 27.1261 12.5314 27.7722 12.1507C28.5151 11.8017 28.1275 10.5962 29.1935 9.92997ZM28.6766 10.0886C28.2244 10.6914 27.8691 10.4376 27.7076 10.3424C27.966 10.152 28.3213 10.0886 28.6766 10.0886Z" fill="#03A06C"/>
<path d="M20.9235 35.9443L20.8912 35.8491C19.7606 36.3884 18.63 36.896 17.4671 37.3719C18.5977 36.9277 19.7606 36.4519 20.9558 35.976L20.9235 35.9443Z" fill="#03A06C"/>
<path d="M20.3422 35.849L17.9518 34.7386L18.8239 36.0394L19.3731 36.2932C19.6961 36.1663 20.0191 36.0076 20.3422 35.849Z" fill="#03A06C"/>
<path d="M9.90921 32.1689L7.64804 31.0903L7.45422 31.5027L9.7154 32.5496L9.90921 32.1689Z" fill="#03A06C"/>
<path d="M12.1698 30.0434L11.3946 29.6627L9.87634 32.7718L10.6516 33.1207L12.1698 30.0434Z" fill="#03A06C"/>
<path d="M37.0102 24.8088C36.4934 24.904 35.9766 24.9357 35.4597 24.9357C34.846 24.9357 34.2322 24.8722 33.6185 24.7771L33.7154 24.9357L33.3924 24.9991C33.0047 25.0943 32.5848 25.126 32.1649 25.126C32.0357 25.126 31.8741 25.126 31.7449 25.0943C33.9415 26.1412 36.0735 26.5219 38.5608 25.7923C38.3669 25.3481 37.7855 25.0626 37.0102 24.8088Z" fill="#03A06C"/>
<path d="M37.8503 27.1247C32.3265 30.0117 27.4489 32.7083 22.5066 35.0559L22.6035 35.2462L22.6358 35.3097C27.6427 33.1841 32.908 30.8048 38.3994 28.1716C38.2379 27.8226 38.0441 27.4102 37.8503 27.1247Z" fill="#03A06C"/>
<path d="M9.39171 14.5617C11.6206 15.5451 13.7525 16.0527 14.0433 18.4004C13.1065 15.3548 10.2962 15.8307 7.38896 13.8637C7.48586 15.0058 8.32573 15.7672 9.58553 16.2748C11.2007 16.8141 12.7835 17.29 13.4295 18.908C11.6852 16.4651 9.00408 17.1948 6.90442 15.5769C7.32435 17.0045 8.58415 18.0831 10.0701 18.2735C11.4591 18.6224 12.202 18.8445 12.9127 19.8597C11.4268 18.3369 9.1979 18.7811 7.19514 17.9562C8.39033 20.6211 11.2653 19.7645 12.945 20.9066C11.4914 20.2404 9.52092 20.5577 8.29343 20.2087C8.90717 21.1287 9.87625 21.6046 11.0068 21.8584C11.6206 21.5094 12.2989 21.4459 13.0096 21.4142C13.3003 21.3825 13.6233 21.3825 13.9141 21.3508C13.0742 20.4625 13.2357 18.9397 14.6893 19.0031C14.8508 13.9906 10.1024 14.3079 8.26112 12.1506C8.13191 13.5147 8.77796 14.2127 9.39171 14.5617Z" fill="#03A06C"/>
<path d="M31.648 8.31195C31.5188 7.96298 31.6157 7.55056 31.9064 7.29676C31.8741 7.10641 31.8418 6.88434 31.7772 6.69399L31.7126 6.66226C30.6466 6.82089 30.5174 8.21678 31.0665 8.94645C31.2926 8.7561 31.4865 8.56575 31.648 8.31195Z" fill="#03A06C"/>
<path d="M32.8435 8.97806C32.682 9.23185 32.4882 9.45393 32.2621 9.64428C33.7803 10.025 34.7494 8.94633 35.8154 9.39048L36.0415 8.66081C35.0724 8.05804 33.7803 8.97806 32.8435 8.97806Z" fill="#03A06C"/>
<path d="M38.4319 22.937C37.1075 23.5715 35.6216 23.857 34.1357 23.8253C33.6512 23.8253 33.1343 23.7936 32.6498 23.7301C32.9728 23.9205 33.2635 24.206 33.4573 24.5233C36.0415 24.9991 38.3673 24.555 39.4979 23.3494C39.1749 23.1591 38.8196 23.0322 38.4319 22.937Z" fill="#03A06C"/>
<path d="M8.71346 28.4255L7.9059 28.0448L6.41998 31.1539L7.19524 31.5028L8.71346 28.4255Z" fill="#03A06C"/>
<path d="M20.1808 9.04156L20.7622 8.75604L20.5038 9.32708C20.31 9.73951 20.0193 10.0885 19.6639 10.3106C21.0852 9.54916 21.9897 8.21672 22.0543 6.1546C21.699 6.18633 21.3114 6.21805 20.956 6.2815C20.956 7.61394 20.4715 8.56569 19.6639 9.16846C19.8255 9.16846 20.0193 9.10501 20.1808 9.04156Z" fill="#03A06C"/>
<path d="M20.6328 7.2016C20.6974 6.91608 20.7297 6.63056 20.7297 6.34503C20.3744 6.40848 20.0514 6.56711 19.793 6.78918C20.0191 7.01125 20.3098 7.13815 20.6328 7.2016Z" fill="#03A06C"/>
<path d="M22.4095 5.04425C20.9235 5.04425 19.696 5.42495 19.696 5.8691V6.56704C20.1483 6.15462 21.2789 5.93255 22.4095 5.93255C23.1524 5.93255 23.8631 6.02772 24.4122 6.18634C24.3153 6.18634 24.1861 6.24979 24.1215 6.31324C24.1215 6.59877 24.1538 6.88429 24.2184 7.16981C24.4768 7.32844 24.7998 7.26499 24.9613 7.01119C25.0906 6.82084 25.0583 6.59877 24.9613 6.44014C25.026 6.47187 25.0906 6.50359 25.1229 6.56704V5.8691C25.0906 5.42495 23.8954 5.04425 22.4095 5.04425Z" fill="#03A06C"/>
<path d="M17.0148 12.1507C17.6609 12.4997 18.1777 13.0707 18.4361 13.7687C18.5653 13.4831 18.7268 12.4997 17.8547 11.421C18.0485 11.5479 18.2423 11.6748 18.3715 11.8652C18.8884 12.119 19.3083 12.5314 19.6313 13.0073C19.7282 12.3728 19.4052 11.7383 18.8238 11.1038C19.7282 12.119 20.6973 12.1824 21.408 11.9604C20.665 11.8335 19.8574 11.0403 19.4375 10.4058C18.7268 10.7865 17.887 10.6914 17.2732 10.1838C16.7887 9.86652 16.1426 9.77134 15.5935 9.92997C16.6595 10.5962 16.3042 11.8017 17.0148 12.1507ZM17.144 10.3424C16.9825 10.4376 16.6272 10.7231 16.175 10.0886C16.498 10.0886 16.8533 10.152 17.144 10.3424Z" fill="#03A06C"/>
<path d="M5.80625 30.7096L6.25849 30.9317L6.4523 30.551L5.87086 30.2655C5.77395 30.2337 5.70935 30.1703 5.64474 30.0751C5.61244 30.1068 5.61244 30.1068 5.61244 30.1386C5.48323 30.3606 5.58014 30.6144 5.80625 30.7096Z" fill="#03A06C"/>
<path d="M23.8954 6.31327C23.5401 6.24982 23.1524 6.18637 22.7971 6.18637C22.894 8.24848 23.7662 9.58093 25.1875 10.3423C24.7999 10.0885 24.5092 9.77128 24.3476 9.35885L24.0892 8.78781L24.6707 9.07333C24.8322 9.13678 25.026 9.20023 25.2198 9.23195C24.3476 8.59746 23.8954 7.64571 23.8954 6.31327Z" fill="#03A06C"/>
<path d="M3.54523 20.1135C5.67719 23.3177 9.13356 23.9522 12.7191 23.4763C12.6868 23.4763 12.6868 23.4763 12.6545 23.4763C11.8147 23.4446 10.9748 23.3494 10.1672 23.1591L9.84421 23.0956L10.0057 22.8418C10.0703 22.7149 10.1672 22.6198 10.2318 22.5246C7.93836 22.4611 5.7741 21.5411 4.19128 19.9232C3.96516 19.9866 3.70674 20.0501 3.54523 20.1135Z" fill="#03A06C"/>
<path d="M15.9167 19.8914C16.046 19.9549 16.2075 19.9866 16.369 20.0183C16.5305 19.828 16.6597 19.6376 16.7889 19.4473C17.2088 18.7811 17.7257 17.9562 19.0501 17.6707C19.0178 17.639 19.0178 17.5755 18.9855 17.5438C18.7917 17.6072 18.5979 17.6707 18.404 17.6707C18.3394 17.6707 18.2748 17.6707 18.2102 17.6707L17.9841 17.639C16.5951 18.2735 16.6597 19.6059 15.9167 19.8914Z" fill="#03A06C"/>
<path d="M5.35375 29.3137L5.57987 29.4089C5.9029 29.4089 6.16132 29.1551 6.16132 28.8378C6.16132 28.7427 6.12901 28.6475 6.06441 28.5523L5.77369 28.4254C5.51527 28.2985 5.22454 28.4254 5.09533 28.6792C4.99843 28.9013 5.09533 29.1868 5.35375 29.3137Z" fill="#03A06C"/>
<path d="M10.1987 22.9687C12.2014 23.3811 14.5595 23.6032 15.2379 22.017C15.0117 22.937 14.2688 23.286 13.3643 23.5398C12.5568 23.6667 11.8461 24.1108 11.4262 24.8087C12.9121 25.0943 14.4626 24.9039 15.2056 23.6984C15.3994 22.7784 15.787 21.8901 16.3684 21.1287C16.1423 21.1287 15.8839 21.0652 15.6578 21.0018C13.5258 22.3025 11.6523 20.8114 10.1987 22.9687Z" fill="#03A06C"/>
<path d="M16.5627 20.9067C16.918 20.4625 17.3056 20.0818 17.7579 19.7646V18.7176H18.5654C18.727 18.4321 18.9531 18.1466 19.1792 17.8928C19.1469 17.8611 19.1469 17.8293 19.1146 17.8293C16.8211 18.3052 17.1118 20.3991 15.6259 20.6846C15.9166 20.8432 16.2397 20.9067 16.5627 20.9067Z" fill="#03A06C"/>
<path d="M17.112 6.05947H17.4997L17.4351 5.80568L17.6935 5.86913V5.52015L17.4351 5.5836L17.4997 5.3298H17.112L17.1766 5.5836L16.9182 5.52015V5.86913L17.1766 5.80568L17.112 6.05947Z" fill="#03A06C"/>
<path d="M17.3057 6.24976C17.1765 6.24976 17.0472 6.34493 17.0472 6.50355C17.0472 6.66218 17.1441 6.75735 17.3057 6.75735C17.4672 6.75735 17.5641 6.66218 17.5641 6.50355C17.5318 6.37666 17.4349 6.24976 17.3057 6.24976Z" fill="#03A06C"/>
<path d="M16.9188 8.50231C17.048 8.50231 17.1772 8.50231 17.3064 8.50231C17.4356 8.50231 17.5648 8.50231 17.694 8.50231C17.694 7.80436 17.7909 7.16987 18.2432 6.82089L17.6617 7.01124L17.5648 6.85262C17.5002 6.91607 17.4033 6.91607 17.3064 6.94779C17.2095 6.94779 17.1449 6.91607 17.048 6.85262L16.9511 7.01124L16.3696 6.82089C16.8219 7.16987 16.9188 7.83609 16.9188 8.50231Z" fill="#03A06C"/>
<path d="M19.4704 3.68008V3.42628L19.212 3.29938V3.5849L19.4704 3.68008Z" fill="#03A06C"/>
<path d="M19.5994 5.5519C19.987 5.07603 21.2145 4.82223 22.4097 4.82223C23.6049 4.82223 24.8324 5.07603 25.22 5.5519C25.7368 5.13948 27.255 3.77531 26.4798 2.6015C26.3506 2.41115 26.1891 2.25252 25.9952 2.15735C25.1231 2.2208 24.1863 2.66495 23.9925 3.74359L23.9602 3.87049L23.8633 3.83876C23.5726 3.74359 23.2495 3.77531 22.9911 3.93394C22.9265 4.15601 22.8942 4.31464 22.8619 4.40981C22.7973 4.60016 22.6035 4.72706 22.4097 4.72706C22.1836 4.72706 22.022 4.60016 21.9574 4.40981C21.9251 4.34636 21.8928 4.15601 21.8282 3.96566C21.5698 3.80704 21.2468 3.77531 20.9561 3.87049L20.8268 3.90221L20.7945 3.77531C20.6007 2.69667 19.664 2.25252 18.7918 2.18907C18.598 2.28425 18.4365 2.44287 18.3073 2.63322C17.5643 3.77531 19.0502 5.13948 19.5994 5.5519ZM25.1231 3.68014V3.39462V3.26772L25.2523 3.20427L25.5107 3.07737L25.8337 2.91874V3.26772V3.55324V3.68014L25.7045 3.74359L25.4461 3.87049L25.1231 4.02911V3.68014ZM25.22 4.72706C25.3169 4.72706 25.3815 4.79051 25.3815 4.88568C25.3815 4.98086 25.3169 5.04431 25.22 5.04431C25.1231 5.04431 25.0585 4.98086 25.0585 4.88568C25.0585 4.79051 25.1231 4.72706 25.22 4.72706ZM24.4124 4.37808C24.5093 4.37808 24.5739 4.44153 24.5739 4.53671C24.5739 4.63188 24.5093 4.69533 24.4124 4.69533C24.3155 4.69533 24.2509 4.63188 24.2509 4.53671C24.2509 4.44153 24.3155 4.37808 24.4124 4.37808ZM23.5403 4.18774C23.6372 4.18774 23.7018 4.25119 23.7018 4.34636C23.7018 4.44153 23.6372 4.50498 23.5403 4.50498C23.4433 4.50498 23.3787 4.44153 23.3787 4.34636C23.3787 4.25119 23.4433 4.18774 23.5403 4.18774ZM21.2791 4.18774C21.376 4.18774 21.4406 4.25119 21.4406 4.34636C21.4406 4.44153 21.376 4.50498 21.2791 4.50498C21.1822 4.50498 21.1176 4.44153 21.1176 4.34636C21.1176 4.25119 21.1822 4.18774 21.2791 4.18774ZM20.4069 4.37808C20.5038 4.40981 20.5038 4.53671 20.4715 4.63188C20.4715 4.66361 20.4392 4.69533 20.4069 4.72706C20.31 4.72706 20.2454 4.66361 20.2454 4.56843C20.2454 4.47326 20.3423 4.37808 20.4069 4.37808ZM19.7609 4.88568C19.7609 4.98086 19.6963 5.04431 19.5994 5.04431C19.5024 5.04431 19.4378 4.98086 19.4378 4.88568C19.4378 4.79051 19.5024 4.72706 19.5994 4.72706C19.6963 4.72706 19.7609 4.79051 19.7609 4.88568ZM18.9856 3.58496V3.29944V2.95047L19.3086 3.10909L19.5671 3.23599L19.6963 3.29944V3.42634V3.71186V4.06084L19.3732 3.90221L19.1148 3.77531L18.9856 3.71186V3.58496Z" fill="#03A06C"/>
<path d="M16.078 8.59748H16.1749C16.3687 8.56576 16.5625 8.56576 16.7564 8.53403C16.7564 7.93126 16.6594 7.29676 16.2718 6.97952L16.0457 6.82089C15.8519 6.82089 15.6904 6.91607 15.5612 7.07469C15.1089 7.67746 15.755 8.31196 16.078 8.59748Z" fill="#03A06C"/>
<path d="M13.1712 8.31194C13.3327 8.53401 13.5265 8.75609 13.7526 8.91471C14.3018 8.18504 14.1726 6.82087 13.1066 6.63052L13.0743 6.69397C13.0097 6.88432 12.9451 7.07467 12.9451 7.29674C13.2358 7.55054 13.3327 7.96297 13.1712 8.31194Z" fill="#03A06C"/>
<path d="M13.527 10.1203C13.8824 9.89819 14.3023 9.80302 14.7222 9.83474C13.3978 9.10507 12.3641 8.02643 12.881 6.66226C12.461 6.78916 12.2672 6.85261 11.9765 6.91606C11.492 8.08988 12.3964 9.48577 13.527 10.1203Z" fill="#03A06C"/>
<path d="M13.1071 10.945C14.4638 10.5643 14.6253 11.3257 15.8851 11.6113C15.2391 11.8016 14.5284 11.7382 13.947 11.4526C14.3669 12.0237 14.8515 12.214 16.6927 12.1823C16.0466 11.6747 16.3697 10.5643 15.4329 10.025C14.9807 9.96157 14.4961 9.99329 14.0762 10.0885C13.624 10.1836 13.2363 10.5009 13.1071 10.945Z" fill="#03A06C"/>
<path d="M32.8761 6.91606C32.5854 6.82089 32.3915 6.75744 31.9716 6.66226C32.4885 8.02643 31.4548 9.1368 30.1304 9.83474C30.5503 9.80302 30.9702 9.92992 31.3256 10.1203C32.4238 9.48577 33.3283 8.08988 32.8761 6.91606Z" fill="#03A06C"/>
<path d="M25.6397 3.29938L25.3489 3.42628V3.68008L25.6074 3.5849L25.6397 3.29938Z" fill="#03A06C"/>
<path d="M14.1725 11.2623C14.5278 11.3257 14.4632 11.5161 15.0123 11.5478C14.8831 11.4209 14.3986 11.0719 14.1725 11.2623Z" fill="#03A06C"/>
<path d="M12.5572 9.64428C12.3311 9.45393 12.1373 9.23185 11.9758 8.97806C11.0067 8.97806 9.74692 8.05804 8.74554 8.66081L8.97166 9.39048C10.0699 8.94633 11.0067 10.025 12.5572 9.64428Z" fill="#03A06C"/>
<path d="M28.6437 8.56574H28.7406C29.0636 8.31194 29.7097 7.64572 29.2251 7.04295C29.1282 6.88433 28.9344 6.78915 28.7406 6.78915L28.5468 6.9795C28.1592 7.29675 28.0946 7.93125 28.0623 8.53402C28.2561 8.53402 28.4499 8.56574 28.6437 8.56574Z" fill="#03A06C"/>
<path d="M27.7716 6.82088C27.707 6.88433 27.6101 6.88433 27.5132 6.91605C27.4163 6.91605 27.3517 6.88433 27.2548 6.82088L27.1579 6.9795L26.5764 6.78915C26.9963 7.13813 27.1256 7.80435 27.1256 8.47057C27.2548 8.47057 27.384 8.47057 27.5132 8.47057C27.6424 8.47057 27.7716 8.47057 27.9008 8.47057C27.9008 7.77262 27.9977 7.13813 28.45 6.78915L27.8685 6.9795L27.7716 6.82088Z" fill="#03A06C"/>
<path d="M27.772 6.50363C27.772 6.37673 27.675 6.28155 27.5458 6.28155C27.4166 6.28155 27.2874 6.37673 27.3197 6.53535C27.3197 6.66225 27.4166 6.75743 27.5781 6.75743C27.7396 6.75743 27.772 6.63053 27.772 6.50363Z" fill="#03A06C"/>
<path d="M30.6143 11.2623C30.3882 11.0719 29.9036 11.4209 29.7744 11.5478C30.3236 11.5161 30.259 11.3257 30.6143 11.2623Z" fill="#03A06C"/>
<path d="M20.9886 3.58495C21.247 3.5215 21.5055 3.55323 21.7316 3.6484C21.6347 3.33115 21.5055 3.04563 21.3439 2.76011C21.0209 2.25251 20.0518 1.84009 19.212 1.99871C20.0841 2.15734 20.7625 2.76011 20.9886 3.58495Z" fill="#03A06C"/>
<path d="M28.0947 12.1823C29.9359 12.214 30.4204 12.0554 30.8081 11.4526C30.1943 11.7382 29.516 11.8016 28.8699 11.6113C30.1297 11.3257 30.2912 10.5644 31.6479 10.9451C31.5187 10.5009 31.1634 10.1519 30.6789 10.0568C30.2266 9.96158 29.7744 9.92986 29.3222 9.99331C28.4177 10.5644 28.773 11.6747 28.0947 12.1823Z" fill="#03A06C"/>
<path d="M27.3197 6.05947H27.7074L27.6428 5.80568L27.9012 5.86913V5.52015L27.6428 5.5836L27.7074 5.3298H27.3197L27.3843 5.5836L27.1259 5.52015V5.86913L27.3843 5.80568L27.3197 6.05947Z" fill="#03A06C"/>
<path d="M22.1185 4.21941C22.1185 4.37803 22.2477 4.50493 22.4093 4.50493C22.5708 4.50493 22.6677 4.37803 22.6677 4.21941C22.6677 4.06078 22.5385 3.96561 22.4093 3.96561C22.2477 3.96561 22.1185 4.06078 22.1185 4.21941Z" fill="#03A06C"/>
<path d="M23.7989 3.58492C24.0251 2.76007 24.7034 2.12558 25.5433 1.99868C24.7357 1.84005 23.7343 2.22075 23.4113 2.76007C23.2498 3.0456 23.1206 3.33112 23.0237 3.64837C23.3144 3.55319 23.5405 3.55319 23.7989 3.58492Z" fill="#03A06C"/>
<path d="M22.054 3.87044C22.1509 3.77526 22.2801 3.74354 22.4093 3.74354C22.5385 3.74354 22.6677 3.80699 22.7646 3.87044C22.8615 3.42629 23.0553 3.01387 23.2815 2.63317L23.3138 2.60144C23.2815 2.44282 23.1846 2.31592 23.0553 2.25247C22.9261 2.50627 22.7 2.66489 22.4093 2.66489C22.1186 2.66489 21.8601 2.50627 21.7632 2.25247C21.634 2.31592 21.5694 2.44282 21.5048 2.56972C21.5371 2.60144 21.5371 2.63317 21.5694 2.66489C21.7955 3.01387 21.9571 3.42629 22.054 3.87044Z" fill="#03A06C"/>
<path d="M22.0548 1.23727H22.6685L22.507 0.729671L23.0239 0.92002V0.317248L22.507 0.507597L22.6685 0H22.0548L22.2486 0.507597L21.7318 0.317248V0.92002L22.2486 0.729671L22.0548 1.23727Z" fill="#03A06C"/>
<path d="M22.3774 1.45935C22.119 1.45935 21.8929 1.68142 21.8929 1.93522C21.8929 2.18902 22.119 2.41109 22.3774 2.41109C22.6358 2.41109 22.862 2.18902 22.862 1.93522C22.862 1.68142 22.6358 1.45935 22.3774 1.45935Z" fill="#03A06C"/>
<path d="M18.8567 14.1493C18.8567 14.1493 19.212 15.799 18.7275 16.6555C18.2106 17.5121 20.3103 15.9259 20.3103 15.9259L20.8595 16.4652L21.9254 15.3866H23.1852L24.0251 16.6555L24.5742 15.9576L26.4478 17.1949C26.4478 17.1949 25.834 15.6721 25.8663 15.1328C25.8986 14.5934 25.6402 13.3244 25.6402 13.3244L25.0588 13.8638L24.4773 12.912L23.5083 12.6582L23.1206 13.4196L22.5392 13.832H22.2485L21.344 12.6265H20.4395C20.4395 12.6265 19.8258 13.7369 19.8581 13.7051C19.8904 13.6734 19.1474 13.1658 19.1474 13.1658L18.8567 14.1493Z" fill="#03A06C"/>
<path d="M9.32771 14.53C9.32771 14.53 10.1999 15.1327 9.32771 14.9107C8.45555 14.6886 9.71534 16.3066 9.71534 16.3066C9.71534 16.3066 10.9428 16.9093 9.97376 16.8142C9.03699 16.719 9.90916 18.21 9.90916 18.21C9.90916 18.21 11.0074 18.6225 9.94146 18.559C8.87548 18.4956 10.3937 20.1135 10.3937 20.1135C10.3937 20.1135 11.3628 20.4942 10.4583 20.4308C9.55383 20.3673 12.138 20.9701 12.138 20.9701H13.0748V19.7328L14.3346 18.5907L13.0102 15.5134L9.32771 14.53Z" fill="#03A06C"/>
<path d="M12.9126 23.2543C12.9126 23.2543 14.0109 23.1908 13.494 23.4764C12.9772 23.7619 14.1724 24.6185 14.1724 24.6185C14.1724 24.6185 14.98 24.2378 14.6246 24.6819C14.2693 25.1261 15.1415 24.3647 15.1415 24.3647L15.2384 23.6667L15.4968 21.6363L12.9126 23.2543Z" fill="#03A06C"/>
<path d="M3.64249 9.54922C3.64249 9.54922 4.03012 10.1203 4.38545 10.152C4.74077 10.152 4.86998 12.1189 4.86998 12.1189C4.86998 12.1189 4.35314 11.6113 4.70847 12.2776C5.0638 12.9438 3.96551 13.5148 3.96551 13.5148C3.96551 13.5148 2.83493 12.0555 2.31809 11.072C1.80125 10.0885 2.70572 9.67612 2.70572 9.67612L3.64249 9.54922Z" fill="#03A06C"/>
<path d="M3.1895 14.9107C3.1895 14.9107 3.96476 15.9893 3.22181 15.3231C2.47885 14.6569 3.90016 17.6707 3.90016 17.6707C3.90016 17.6707 4.67542 18.559 4.02937 18.1149C3.38332 17.6707 4.90154 20.2087 4.90154 20.2087C4.99844 20.3356 6.03212 21.1287 5.03074 20.5894C4.15858 20.1453 7.38883 22.4612 7.61494 22.2708L10.2314 22.5564L10.6191 22.1122L8.84244 21.6046L8.48711 20.7163L8.13178 20.2722L7.0335 19.1935L7.35652 18.8128L7.32422 18.5273L7.0335 17.988L3.1895 14.9107Z" fill="#03A06C"/>
<path d="M8.45471 24.6819C8.45471 24.6819 9.87602 24.8088 9.10076 24.9357C8.3255 25.0626 10.0375 26.0777 10.0375 26.0777C10.0375 26.0777 11.2327 25.8874 10.5544 26.2046C9.87602 26.5219 11.1681 27.5688 11.1681 27.5688C11.1681 27.5688 12.1695 27.1881 11.4265 27.6957C10.6836 28.2033 12.9771 28.5523 12.9771 28.5523C12.9771 28.5523 13.72 28.1081 13.3001 28.584C12.8802 29.0599 14.6568 29.4406 14.6568 29.4406C14.6568 29.4406 15.2059 28.584 15.0444 29.3137C14.8829 30.0433 16.4334 30.1702 16.4334 30.1702C16.4334 30.1702 16.8534 29.6309 16.7241 30.1385C16.5949 30.6461 17.0472 29.5992 17.0472 29.5992L16.6595 29.1868L15.852 27.9812L15.6582 27.5688L15.3997 26.966L15.2382 26.3633L15.1413 25.9191L13.8492 25.9826L13.6231 26.2364L13.397 26.4584C13.397 26.4584 13.2032 27.1247 13.1709 26.3633C13.1709 25.5701 13.2678 25.3798 13.2678 25.3798L13.7523 24.9991C13.7523 24.9991 13.0094 25.126 12.8802 25.126C12.7509 25.126 11.0712 24.9674 11.0712 24.9674L11.1681 24.8088L11.3296 24.555L8.90695 24.3963L8.45471 24.6819Z" fill="#03A06C"/>
<path d="M35.525 14.53C35.525 14.53 34.6528 15.1327 35.525 14.9107C36.3972 14.6886 35.1374 16.3066 35.1374 16.3066C35.1374 16.3066 33.9422 16.9093 34.879 16.8142C35.8157 16.719 34.9436 18.21 34.9436 18.21C34.9436 18.21 33.8453 18.6225 34.9113 18.559C35.9772 18.4956 34.459 20.1135 34.459 20.1135C34.459 20.1135 33.49 20.4942 34.3944 20.4308C35.2989 20.3673 32.7147 20.9701 32.7147 20.9701H31.7779V19.7328L30.5181 18.5907L31.8425 15.5134L35.525 14.53Z" fill="#03A06C"/>
<path d="M31.9397 23.2543C31.9397 23.2543 30.8414 23.1908 31.3582 23.4764C31.8751 23.7619 30.6799 24.6185 30.6799 24.6185C30.6799 24.6185 29.8723 24.2378 30.2276 24.6819C30.5507 25.1261 29.7108 24.3647 29.7108 24.3647L29.6139 23.6667L29.3555 21.6363L31.9397 23.2543Z" fill="#03A06C"/>
<path d="M41.2103 9.54922C41.2103 9.54922 40.8227 10.1203 40.4673 10.152C40.112 10.152 39.9828 12.1189 39.9828 12.1189C39.9828 12.1189 40.4996 11.6113 40.1443 12.2776C39.789 12.9438 40.8873 13.5148 40.8873 13.5148C40.8873 13.5148 41.824 12.6583 41.8886 12.5948C41.9532 12.5314 42.6639 11.2941 42.6639 11.2941C42.6639 11.2941 41.9855 12.0872 42.5347 11.072C43.0838 10.0885 42.1471 9.67612 42.1471 9.67612L41.2103 9.54922Z" fill="#03A06C"/>
<path d="M41.6625 14.9107C41.6625 14.9107 40.8872 15.9893 41.6302 15.3231C42.3731 14.6569 40.9518 17.6707 40.9518 17.6707C40.9518 17.6707 40.1766 18.559 40.8226 18.1149C41.4687 17.6707 39.9505 20.2087 39.9505 20.2087C39.8535 20.3356 38.8199 21.1287 39.8212 20.5894C40.6934 20.1453 37.4632 22.4612 37.237 22.2708L34.6205 22.5564L34.2329 22.1122L36.0095 21.6046L36.3649 20.7163L36.7202 20.2722L37.8185 19.1935L37.4955 18.8128L37.5278 18.5273L37.8185 17.988L41.6625 14.9107Z" fill="#03A06C"/>
<path d="M36.3967 24.6819C36.3967 24.6819 34.9754 24.8088 35.7506 24.9357C36.5259 25.0626 34.8138 26.0777 34.8138 26.0777C34.8138 26.0777 33.6186 25.8874 34.297 26.2046C34.9754 26.5219 33.6833 27.5688 33.6833 27.5688C33.6833 27.5688 32.6819 27.1881 33.4248 27.6957C34.1678 28.2033 31.8743 28.5523 31.8743 28.5523C31.8743 28.5523 31.1314 28.1081 31.5513 28.584C31.9712 29.0599 30.1946 29.4406 30.1946 29.4406C30.1946 29.4406 29.6454 28.584 29.807 29.3137C29.9685 30.0433 28.4179 30.1702 28.4179 30.1702C28.4179 30.1702 27.998 29.6309 28.1272 30.1385C28.2564 30.6461 27.8042 29.5992 27.8042 29.5992L28.1918 29.1868L28.9994 27.9812L29.1932 27.5688L29.4516 26.9026L29.6131 26.2998L29.6777 25.8874L30.9698 25.9508L31.196 26.2046L31.4221 26.4267C31.4221 26.4267 31.6159 27.0929 31.6482 26.3315C31.6805 25.5701 31.5513 25.3798 31.5513 25.3798L31.0668 24.9991C31.0668 24.9991 31.8097 25.126 31.9389 25.126C32.0681 25.126 33.7479 24.9674 33.7479 24.9674L33.6509 24.8088L33.4894 24.555L35.9121 24.3963L36.3967 24.6819Z" fill="#03A06C"/>
</svg>
