<svg width="40" height="40" viewBox="0 0 40 40" fill="none" xmlns="http://www.w3.org/2000/svg">
<path d="M34.1029 12.7148V6.02108C34.1029 5.46879 33.6552 5.02108 33.1029 5.02108H22.9383V1.00772C22.9383 0.455435 22.4906 0.00772095 21.9383 0.00772095H12.1645C11.6122 0.00772095 11.1645 0.455436 11.1645 1.00772V5.02108H1C0.447716 5.02108 0 5.4688 0 6.02108V25.5478C0 26.1001 0.447715 26.5478 1 26.5478H17.276V38.9922C17.276 39.5445 17.7237 39.9922 18.276 39.9922H33.392C36.9739 39.9922 40 36.8587 40 33.1497V13.7148C40 13.1625 39.5523 12.7148 39 12.7148H34.1029ZM24.0648 12.7148L31.7591 8.23202V12.7148H24.0648ZM19.4591 12.6858H14.6438L5.51109 7.36483H28.5918L19.4591 12.6858ZM15.4991 15.0295H17.2761V17.0698H15.4991V15.0295ZM13.5083 2.35147H20.5945V5.02108H13.5083V2.35147ZM2.34375 24.2041V8.23202L13.1554 14.5311V19.4134H17.2761V24.2041H2.34375ZM19.6198 15.0586H37.6562L37.6559 30.1593L37.656 30.1759C37.6627 30.6419 37.4949 31.0723 37.1838 31.3878C36.8927 31.6831 36.4993 31.8458 36.0762 31.8458H31.7029V36.0217C31.7029 36.8546 31.0774 37.5431 30.2706 37.6483H19.6197L19.6198 15.0586ZM33.7042 37.6345C33.9238 37.1411 34.0467 36.5957 34.0467 36.0218V34.1896H36.0762C36.6067 34.1896 37.1195 34.0857 37.5919 33.8879C37.4397 34.7799 37.0186 35.6338 36.3837 36.3066C35.6438 37.0905 34.702 37.554 33.7042 37.6345Z" fill="#03A06C" stroke="white"/>
</svg>
