<svg width="79" height="54" viewBox="0 0 79 54" fill="none" xmlns="http://www.w3.org/2000/svg">
<path d="M69.6345 31.3455C69.525 30.8849 69.1134 30.5598 68.6399 30.5598C67.2479 30.5598 64.7504 29.8666 62.6384 28.9487V24.5126C62.6384 22.8216 61.2626 21.4458 59.5716 21.4458H57.527V3.04453C57.527 1.91718 56.6099 1 55.4825 1H24.8146C23.6872 1 22.77 1.91718 22.77 3.04453V15.3122H19.7032C18.5759 15.3122 17.6587 16.2294 17.6587 17.3568V47.0026C17.6587 48.6936 19.0345 50.0694 20.7255 50.0694H53.9302C55.1327 51.1807 56.5577 52.2413 58.2472 53.2058C58.4043 53.2954 58.5792 53.3402 58.7541 53.3402C58.929 53.3402 59.1038 53.2953 59.2609 53.2058C66.3355 49.1672 68.784 43.4448 69.5923 39.3554C70.4661 34.9349 69.6688 31.4901 69.6345 31.3455ZM24.8146 3.04453H55.4825V21.4458H37.7739L36.0604 17.1621C35.6109 16.0383 34.5723 15.3121 33.4145 15.3121H24.8146V3.04453ZM19.7032 47.0026V45.9802H25.0186C25.5832 45.9802 26.0409 45.5225 26.0409 44.9579C26.0409 44.3933 25.5832 43.9357 25.0186 43.9357H19.7032V17.3568H33.4145C33.7749 17.3568 34.0497 17.6403 34.1621 17.9215L36.1328 22.8478C36.288 23.2359 36.6639 23.4904 37.0819 23.4904H59.5718C60.1355 23.4904 60.5941 23.9489 60.5941 24.5126V27.9015C60.1409 27.621 59.7557 27.3362 59.4729 27.0565C59.0747 26.6626 58.4337 26.6626 58.0353 27.0565C56.3587 28.7144 51.1399 30.5597 48.8682 30.5597C48.3947 30.5597 47.9832 30.8848 47.8736 31.3454C47.8392 31.49 47.042 34.9348 47.9158 39.3553C48.4153 41.8824 49.5419 45.0332 51.9988 48.0248H20.7255C20.1618 48.0248 19.7032 47.5662 19.7032 47.0026ZM67.5865 38.9589C66.566 44.1214 63.5958 48.2145 58.754 51.1328C53.9389 48.2304 50.9741 44.1647 49.9376 39.04C49.3577 36.1723 49.5671 33.7203 49.7347 32.5508C52.3723 32.254 56.538 30.7647 58.7541 29.1189C60.9705 30.7651 65.1376 32.2546 67.7752 32.551C67.9422 33.705 68.1495 36.1106 67.5865 38.9589Z" fill="#03A06C"/>
<path d="M28.5458 7.1337H51.7511C52.3157 7.1337 52.7734 6.67604 52.7734 6.11144C52.7734 5.54684 52.3157 5.08917 51.7511 5.08917H28.5458C27.9812 5.08917 27.5236 5.54684 27.5236 6.11144C27.5236 6.67604 27.9812 7.1337 28.5458 7.1337Z" fill="#03A06C"/>
<path d="M52.7734 10.2005C52.7734 9.63591 52.3157 9.17824 51.7511 9.17824H28.5458C27.9812 9.17824 27.5236 9.63591 27.5236 10.2005C27.5236 10.7651 27.9812 11.2228 28.5458 11.2228H51.7511C52.3156 11.2228 52.7734 10.7651 52.7734 10.2005Z" fill="#03A06C"/>
<path d="M51.7511 13.2673H40.1484C39.5838 13.2673 39.1262 13.725 39.1262 14.2896C39.1262 14.8542 39.5838 15.3118 40.1484 15.3118H51.7511C52.3157 15.3118 52.7734 14.8542 52.7734 14.2896C52.7734 13.725 52.3156 13.2673 51.7511 13.2673Z" fill="#03A06C"/>
<path d="M51.7513 17.3564H45.72C45.1554 17.3564 44.6977 17.814 44.6977 18.3786C44.6977 18.9432 45.1554 19.4009 45.72 19.4009H51.7513C52.3159 19.4009 52.7736 18.9432 52.7736 18.3786C52.7736 17.814 52.3158 17.3564 51.7513 17.3564Z" fill="#03A06C"/>
<path d="M62.5726 34.4892C61.7535 34.4892 60.9834 34.8083 60.4042 35.3875L57.5827 38.2089L57.1033 37.7295C56.5241 37.1503 55.754 36.8313 54.9349 36.8313C54.1157 36.8313 53.3457 37.1504 52.7666 37.7295C52.1873 38.3087 51.8683 39.0788 51.8683 39.8979C51.8683 40.7171 52.1873 41.4871 52.7664 42.0664L55.4143 44.7142C56.0121 45.312 56.7974 45.6109 57.5826 45.6109C58.3679 45.6109 59.1533 45.3119 59.7511 44.7142L64.741 39.7243C65.9366 38.5287 65.9366 36.5831 64.741 35.3876C64.1619 34.8083 63.3919 34.4892 62.5726 34.4892ZM63.2954 38.2785L58.3056 43.2683C57.9071 43.6668 57.2587 43.6667 56.8602 43.2683L54.2123 40.6205C54.0192 40.4275 53.913 40.1708 53.913 39.8978C53.913 39.6248 54.0193 39.3682 54.2123 39.1752C54.4053 38.9821 54.662 38.8759 54.935 38.8759C55.2079 38.8759 55.4646 38.9822 55.6576 39.1752L56.8599 40.3775C57.0516 40.5691 57.3116 40.6769 57.5827 40.6769C57.8539 40.6769 58.1139 40.5691 58.3056 40.3775L61.8499 36.8332C62.0429 36.6401 62.2996 36.5339 62.5725 36.5339C62.8456 36.5339 63.1022 36.6402 63.2952 36.8332C63.6939 37.2317 63.6939 37.88 63.2954 38.2785Z" fill="#03A06C"/>
<path d="M29.6185 43.9356C29.0539 43.9356 28.5962 44.3933 28.5962 44.9579C28.5962 45.5225 29.0539 45.9802 29.6185 45.9802H29.6192C30.1838 45.9802 30.6412 45.5225 30.6412 44.9579C30.6412 44.3933 30.1831 43.9356 29.6185 43.9356Z" fill="#03A06C"/>
<g filter="url(#filter0_d)">
<rect x="11.1023" y="24.1408" width="55.1343" height="13.3883" rx="1.1" transform="rotate(-15 11.1023 24.1408)" fill="white" stroke="#03A06C" stroke-width="1.8"/>
<path d="M21.0669 32.4941L19.5885 26.9768L23.9545 25.8069L25.4329 31.3243L24.266 31.6369L23.0486 27.0932L21.0162 27.6378L22.2337 32.1815L21.0669 32.4941ZM31.0908 26.8432C31.244 27.415 31.2826 27.9403 31.2066 28.4189C31.1343 28.8911 30.9368 29.2974 30.6139 29.6379C30.291 29.9784 29.8282 30.2294 29.2255 30.3909C28.6279 30.551 28.1016 30.565 27.6466 30.433C27.1967 30.2995 26.8192 30.0446 26.514 29.668C26.214 29.2902 25.9873 28.8153 25.8341 28.2435C25.6809 27.6716 25.6404 27.1497 25.7127 26.6775C25.7901 26.204 25.9909 25.7996 26.3152 25.4643C26.6432 25.1224 27.1086 24.8707 27.7113 24.7092C28.3089 24.5491 28.8326 24.5357 29.2825 24.6692C29.731 24.7975 30.1053 25.0505 30.4053 25.4284C30.7091 25.7998 30.9376 26.2714 31.0908 26.8432ZM27.0648 27.922C27.2194 28.499 27.4524 28.9252 27.7636 29.2007C28.0735 29.471 28.4731 29.5406 28.9625 29.4095C29.4622 29.2756 29.7761 29.0148 29.9041 28.6271C30.0307 28.2343 30.0168 27.7494 29.8622 27.1724C29.7062 26.5903 29.4758 26.1634 29.1711 25.8916C28.8664 25.6199 28.4668 25.5503 27.9722 25.6828C27.4777 25.8153 27.1638 26.0761 27.0306 26.4652C26.8975 26.8542 26.9089 27.3398 27.0648 27.922ZM34.9816 22.8522L35.2405 23.8181L32.9222 24.4393L34.1418 28.9907L32.9749 29.3034L31.4966 23.786L34.9816 22.8522ZM40.1401 27.3835L39.3862 26.1775L37.3771 26.7159L37.3273 28.1372L36.0677 28.4747L36.5304 22.4124L37.96 22.0293L41.3996 27.046L40.1401 27.3835ZM38.0996 24.0956C38.0503 24.0149 37.9872 23.9131 37.9101 23.7902C37.833 23.6673 37.7552 23.5419 37.6767 23.4138C37.5982 23.2858 37.5323 23.1737 37.4789 23.0775C37.4808 23.1875 37.4792 23.3259 37.4743 23.4929C37.4731 23.6533 37.4705 23.8086 37.4666 23.9588C37.4664 24.1024 37.4636 24.2053 37.4582 24.2675L37.4078 25.6558L38.8451 25.2707L38.0996 24.0956ZM49.0376 24.9994L42.0984 26.8588L40.62 21.3414L41.7869 21.0287L43.0044 25.5725L44.7198 25.1128L43.5024 20.5691L44.6769 20.2544L45.8944 24.7981L47.6099 24.3384L46.3924 19.7947L47.5593 19.482L49.0376 24.9994ZM53.6055 23.7755L50.4295 24.6265L48.9512 19.1091L52.1271 18.2581L52.3839 19.2163L50.3747 19.7546L50.6998 20.9678L52.5698 20.4668L52.8266 21.425L50.9566 21.926L51.3375 23.3479L53.3467 22.8095L53.6055 23.7755ZM59.2741 22.2566L58.1072 22.5692L57.4695 20.1892L55.2827 20.7751L55.9204 23.1552L54.7536 23.4678L53.2752 17.9505L54.442 17.6378L55.0218 19.8015L57.2086 19.2155L56.6289 17.0518L57.7957 16.7392L59.2741 22.2566ZM28.18 39.0112C28.3332 39.583 28.3718 40.1083 28.2958 40.5869C28.2235 41.0591 28.0259 41.4654 27.7031 41.8059C27.3802 42.1464 26.9174 42.3974 26.3146 42.5589C25.7171 42.719 25.1908 42.733 24.7357 42.601C24.2859 42.4675 23.9083 42.2125 23.6032 41.836C23.3031 41.4581 23.0765 40.9833 22.9233 40.4115C22.7701 39.8396 22.7296 39.3176 22.8019 38.8455C22.8793 38.372 23.0801 37.9676 23.4044 37.6322C23.7324 37.2904 24.1978 37.0387 24.8005 36.8772C25.3981 36.717 25.9218 36.7037 26.3717 36.8371C26.8202 36.9654 27.1944 37.2185 27.4945 37.5964C27.7983 37.9678 28.0268 38.4394 28.18 39.0112ZM24.154 40.09C24.3086 40.6669 24.5415 41.0932 24.8528 41.3687C25.1627 41.639 25.5623 41.7086 26.0517 41.5775C26.5514 41.4436 26.8653 41.1828 26.9933 40.7951C27.1199 40.4023 27.1059 39.9174 26.9513 39.3404C26.7954 38.7583 26.565 38.3314 26.2603 38.0596C25.9556 37.7879 25.556 37.7183 25.0614 37.8508C24.5669 37.9833 24.253 38.2441 24.1198 38.6332C23.9866 39.0222 23.998 39.5078 24.154 40.09Z" fill="#03A06C"/>
</g>
<defs>
<filter id="filter0_d" x="0.448975" y="0.217728" width="78.0273" height="53.4728" filterUnits="userSpaceOnUse" color-interpolation-filters="sRGB">
<feFlood flood-opacity="0" result="BackgroundImageFix"/>
<feColorMatrix in="SourceAlpha" type="matrix" values="0 0 0 0 0 0 0 0 0 0 0 0 0 0 0 0 0 0 127 0"/>
<feOffset dy="1"/>
<feGaussianBlur stdDeviation="5"/>
<feColorMatrix type="matrix" values="0 0 0 0 0 0 0 0 0 0 0 0 0 0 0 0 0 0 0.1 0"/>
<feBlend mode="normal" in2="BackgroundImageFix" result="effect1_dropShadow"/>
<feBlend mode="normal" in="SourceGraphic" in2="effect1_dropShadow" result="shape"/>
</filter>
</defs>
</svg>
