<svg width="50" height="50" viewBox="0 0 50 50" fill="none" xmlns="http://www.w3.org/2000/svg">
<path d="M12.8822 46.6609H10.4239C9.88936 46.6609 9.45599 47.0942 9.45599 47.6287C9.45599 48.1632 9.88936 48.5966 10.4239 48.5966H12.8822C13.4167 48.5966 13.8501 48.1632 13.8501 47.6287C13.8501 47.0942 13.4167 46.6609 12.8822 46.6609Z" fill="#03A06C"/>
<path d="M18.9411 46.6609H16.4828C15.9483 46.6609 15.5149 47.0942 15.5149 47.6287C15.5149 48.1632 15.9483 48.5966 16.4828 48.5966H18.9411C19.4756 48.5966 19.909 48.1632 19.909 47.6287C19.909 47.0942 19.4756 46.6609 18.9411 46.6609Z" fill="#03A06C"/>
<path d="M25 46.6609H22.5416C22.0071 46.6609 21.5737 47.0942 21.5737 47.6287C21.5737 48.1632 22.0071 48.5966 22.5416 48.5966H25C25.5345 48.5966 25.9678 48.1632 25.9678 47.6287C25.9678 47.0942 25.5345 46.6609 25 46.6609Z" fill="#03A06C"/>
<path d="M31.0589 46.6609H28.6005C28.066 46.6609 27.6326 47.0942 27.6326 47.6287C27.6326 48.1632 28.066 48.5966 28.6005 48.5966H31.0589C31.5934 48.5966 32.0267 48.1632 32.0267 47.6287C32.0267 47.0942 31.5934 46.6609 31.0589 46.6609Z" fill="#03A06C"/>
<path d="M37.1369 46.6609H37.1176H34.6786C34.1441 46.6609 33.7107 47.0942 33.7107 47.6287C33.7107 48.1632 34.1441 48.5966 34.6786 48.5966H37.1369C37.6714 48.5966 38.1048 48.1632 38.1048 47.6287C38.1048 47.0942 37.6714 46.6609 37.1369 46.6609Z" fill="#03A06C"/>
<path d="M47.7836 1.4034H2.21641C0.994483 1.40873 0.00532327 2.39789 0 3.61982V12.2725C0.00532327 13.4945 0.994483 14.4836 2.21641 14.489H6.40728V47.6287C6.40728 48.1632 6.84064 48.5966 7.37514 48.5966C7.90965 48.5966 8.34301 48.1632 8.34301 47.6287V11.1595C8.34301 9.89801 9.36568 8.87534 10.6272 8.87534H40.06C39.6184 9.55538 39.3831 10.3487 39.3825 11.1595L39.3244 47.6287C39.3244 48.1632 39.7578 48.5966 40.2923 48.5966C40.8268 48.5966 41.2602 48.1632 41.2602 47.6287L41.3182 14.4986H47.7836C49.0055 14.4933 49.9947 13.5042 50 12.2822V3.61982C49.9947 2.39789 49.0055 1.40873 47.7836 1.4034ZM48.0643 3.61982V12.2822C48.0643 12.4372 47.9386 12.5629 47.7836 12.5629H41.3182V11.1595C41.3182 9.89801 42.3409 8.87534 43.6024 8.87534H44.5703C45.1048 8.87534 45.5381 8.44197 45.5381 7.90747C45.5381 7.37296 45.1048 6.9396 44.5703 6.9396H5.18777C4.65326 6.9396 4.2199 7.37296 4.2199 7.90747C4.2199 8.44197 4.65326 8.87534 5.18777 8.87534H7.1235C6.67756 9.55381 6.43873 10.3476 6.43631 11.1595V12.5629H2.21641C2.06144 12.5629 1.93573 12.4372 1.93573 12.2822V3.61982C1.93573 3.46484 2.06144 3.33914 2.21641 3.33914H47.7836C47.9386 3.33914 48.0643 3.46484 48.0643 3.61982Z" fill="#03A06C"/>
<path d="M24.4096 17.741H13.5307C12.9962 17.741 12.5629 18.1744 12.5629 18.7089C12.5629 19.2434 12.9962 19.6767 13.5307 19.6767H24.4096C24.9441 19.6767 25.3774 19.2434 25.3774 18.7089C25.3774 18.1744 24.9441 17.741 24.4096 17.741Z" fill="#03A06C"/>
<path d="M34.3343 17.741H30.7933C30.4429 17.741 30.1588 18.1743 30.1588 18.7088C30.1588 19.2434 30.4429 19.6767 30.7933 19.6767H34.3343C34.6848 19.6767 34.9689 19.2434 34.9689 18.7088C34.9689 18.1743 34.6848 17.741 34.3343 17.741Z" fill="#03A06C"/>
<path d="M20.759 23.3837H13.2325C12.8627 23.3837 12.5629 23.817 12.5629 24.3515C12.5629 24.886 12.8627 25.3194 13.2325 25.3194H20.759C21.1288 25.3194 21.4287 24.886 21.4287 24.3515C21.4287 23.817 21.1288 23.3837 20.759 23.3837Z" fill="#03A06C"/>
<path d="M34.3343 23.3837H30.7933C30.4429 23.3837 30.1588 23.8171 30.1588 24.3516C30.1588 24.8861 30.4429 25.3194 30.7933 25.3194H34.3343C34.6848 25.3194 34.9689 24.8861 34.9689 24.3516C34.9689 23.8171 34.6848 23.3837 34.3343 23.3837Z" fill="#03A06C"/>
<path d="M24.4095 29.036H13.5307C12.9962 29.036 12.5628 29.4694 12.5628 30.0039C12.5628 30.5384 12.9962 30.9717 13.5307 30.9717H24.4095C24.944 30.9717 25.3774 30.5384 25.3774 30.0039C25.3774 29.4694 24.944 29.036 24.4095 29.036Z" fill="#03A06C"/>
<path d="M31.6903 34.9206H13.4123C12.9431 34.9206 12.5628 35.354 12.5628 35.8885C12.5628 36.423 12.9431 36.8564 13.4123 36.8564H31.6903C32.1594 36.8564 32.5397 36.423 32.5397 35.8885C32.5397 35.354 32.1594 34.9206 31.6903 34.9206Z" fill="#03A06C"/>
<path d="M25.3411 40.4762H13.4123C12.9431 40.4762 12.5628 40.9096 12.5628 41.4441C12.5628 41.9786 12.9431 42.4119 13.4123 42.4119H25.3411C25.8102 42.4119 26.1905 41.9786 26.1905 41.4441C26.1905 40.9096 25.8102 40.4762 25.3411 40.4762Z" fill="#03A06C"/>
<path d="M34.3343 29.036H30.7933C30.4429 29.036 30.1588 29.4694 30.1588 30.0039C30.1588 30.5384 30.4429 30.9717 30.7933 30.9717H34.3343C34.6848 30.9717 34.9689 30.5384 34.9689 30.0039C34.9689 29.4694 34.6848 29.036 34.3343 29.036Z" fill="#03A06C"/>
</svg>
