<svg width="80" height="80" viewBox="0 0 80 80" fill="none" xmlns="http://www.w3.org/2000/svg">
<g clip-path="url(#clip0)">
<path d="M49.6886 33.1002C47.0614 33.1002 44.5097 33.6097 42.1047 34.6143C41.3084 34.9469 40.9327 35.8621 41.2652 36.6583C41.5978 37.4547 42.513 37.83 43.3092 37.4978C45.3308 36.6533 47.4771 36.2252 49.6886 36.2252C58.8213 36.2252 66.2511 43.6552 66.2511 52.7877C66.2511 61.9202 58.8213 69.3502 49.6886 69.3502C40.556 69.3502 33.1261 61.9202 33.1261 52.7877C33.1261 50.5796 33.553 48.4361 34.395 46.4174C34.7272 45.6208 34.3508 44.706 33.5544 44.3738C32.7584 44.0421 31.843 44.418 31.5108 45.2144C30.5091 47.6164 30.0011 50.1644 30.0011 52.7877C30.0011 63.6435 38.8328 72.4752 49.6886 72.4752C60.5444 72.4752 69.3761 63.6435 69.3761 52.7877C69.3761 41.9319 60.5444 33.1002 49.6886 33.1002Z" fill="#939393"/>
<path d="M49.6886 65.6002C56.7535 65.6002 62.5011 59.8525 62.5011 52.7877C62.5011 45.7228 56.7535 39.9752 49.6886 39.9752C42.6238 39.9752 36.8761 45.7228 36.8761 52.7877C36.8761 59.8525 42.6239 65.6002 49.6886 65.6002ZM49.6886 43.1002C55.0303 43.1002 59.3761 47.4461 59.3761 52.7877C59.3761 58.1293 55.0303 62.4752 49.6886 62.4752C44.3469 62.4752 40.0011 58.1294 40.0011 52.7877C40.0011 47.446 44.3469 43.1002 49.6886 43.1002Z" fill="#939393"/>
<path d="M72.0756 25.6002H67.3225L61.867 16.3678C61.5859 15.8921 61.0744 15.6002 60.5219 15.6002H38.8552C38.3025 15.6002 37.7911 15.8921 37.51 16.3678L32.0545 25.6002H23.125V23.7252C23.125 20.6235 20.6017 18.1002 17.5 18.1002C14.3983 18.1002 11.875 20.6235 11.875 23.7252V25.6002H7.92438C3.55484 25.6002 0 29.155 0 33.5247V72.0507C0 76.4203 3.55484 79.9752 7.92438 79.9752H72.0755C76.445 79.9752 79.9998 76.4203 79.9998 72.0507V33.5247C80 29.155 76.445 25.6002 72.0756 25.6002ZM39.7467 18.7252H59.6302L63.6927 25.6002H35.6842L39.7467 18.7252ZM15 23.7252C15 22.3468 16.1216 21.2252 17.5 21.2252C18.8784 21.2252 20 22.3468 20 23.7252V25.6002H15V23.7252ZM76.875 72.0507C76.875 74.6972 74.722 76.8502 72.0756 76.8502H7.92438C5.27797 76.8502 3.125 74.6971 3.125 72.0507V33.5247C3.125 30.8782 5.27797 28.7252 7.92438 28.7252H72.0755C74.7219 28.7252 76.8748 30.8782 76.8748 33.5247V72.0507H76.875Z" fill="#939393"/>
<path d="M49.6886 49.7408C51.3688 49.7408 52.7355 51.1077 52.7355 52.7877C52.7355 53.6507 53.435 54.3502 54.298 54.3502C55.1609 54.3502 55.8605 53.6507 55.8605 52.7877C55.8605 49.3846 53.0917 46.6158 49.6886 46.6158C48.8256 46.6158 48.1261 47.3155 48.1261 48.1783C48.1261 49.0411 48.8256 49.7408 49.6886 49.7408Z" fill="#939393"/>
<path d="M49.6886 11.4894C50.5516 11.4894 51.2511 10.7897 51.2511 9.9269V1.58737C51.2511 0.724559 50.5516 0.0248718 49.6886 0.0248718C48.8256 0.0248718 48.1261 0.724403 48.1261 1.58737V9.9269C48.1261 10.7899 48.8256 11.4894 49.6886 11.4894Z" fill="#939393"/>
<path d="M57.1233 11.4894C57.5231 11.4894 57.9231 11.3367 58.2281 11.0317L63.9611 5.29877C64.5712 4.68861 64.5712 3.69924 63.9609 3.08892C63.3508 2.47892 62.3614 2.47892 61.7512 3.08892L56.0184 8.82205C55.4083 9.43221 55.4083 10.4216 56.0184 11.0319C56.3236 11.3369 56.7234 11.4894 57.1233 11.4894Z" fill="#939393"/>
<path d="M41.1483 11.0319C41.4534 11.3369 41.8533 11.4896 42.2531 11.4896C42.653 11.4896 43.053 11.3369 43.358 11.0319C43.9681 10.4218 43.9683 9.43239 43.3581 8.82208L37.6252 3.08911C37.015 2.47927 36.0256 2.47911 35.4155 3.08911C34.8053 3.69927 34.8051 4.68864 35.4153 5.29895L41.1483 11.0319Z" fill="#939393"/>
<path d="M21.5625 38.4127H13.4375C12.5745 38.4127 11.875 39.1124 11.875 39.9752C11.875 40.8382 12.5745 41.5377 13.4375 41.5377H21.5625C22.4255 41.5377 23.125 40.8382 23.125 39.9752C23.125 39.1122 22.4255 38.4127 21.5625 38.4127Z" fill="#939393"/>
<path d="M36.869 41.5376C37.2799 41.5376 37.683 41.3704 37.9737 41.0798C38.2643 40.7891 38.4315 40.3874 38.4315 39.9751C38.4315 39.5641 38.2643 39.161 37.9737 38.8704C37.683 38.5799 37.2799 38.4126 36.869 38.4126C36.4581 38.4126 36.0549 38.5798 35.7643 38.8704C35.4721 39.161 35.3065 39.5643 35.3065 39.9751C35.3065 40.386 35.4721 40.7891 35.7643 41.0798C36.0549 41.3704 36.4565 41.5376 36.869 41.5376Z" fill="#939393"/>
</g>
<defs>
<clipPath id="clip0">
<rect width="80" height="80" fill="white"/>
</clipPath>
</defs>
</svg>
